/* XPM */
static char *fotor_2023_3_17_14_14_56_resized[] = {
/* columns rows colors chars-per-pixel */
"64 64 255 2 ",
"   c #075A04",
".  c #10530C",
"X  c #0A6705",
"o  c #136302",
"O  c #156C06",
"+  c #0C7505",
"@  c #147402",
"#  c #1A7401",
"$  c #1C7C02",
"%  c #15720B",
"&  c #1B750B",
"*  c #1C7B0C",
"=  c #147A06",
"-  c #186B14",
";  c #1C7B12",
":  c #1A7717",
">  c #0D6413",
",  c #237C03",
"<  c #257B0A",
"1  c #247D13",
"2  c #257B1A",
"3  c #267717",
"4  c #347919",
"5  c #2D760C",
"6  c #2A7724",
"7  c #1C8303",
"8  c #1C8A02",
"9  c #1D830C",
"0  c #1B890A",
"q  c #1D8515",
"w  c #1B9105",
"e  c #238403",
"r  c #2A8404",
"t  c #248C03",
"y  c #2C8B03",
"u  c #23830C",
"i  c #2C830C",
"p  c #248A0B",
"a  c #2C8C0B",
"s  c #328C0C",
"d  c #368A08",
"f  c #2C9203",
"g  c #2C930B",
"h  c #289708",
"j  c #349404",
"k  c #349C04",
"l  c #3B9B04",
"z  c #34930D",
"x  c #3B940C",
"c  c #349A0C",
"v  c #3B9B0C",
"b  c #3A9503",
"n  c #248313",
"m  c #2B8414",
"M  c #258B14",
"N  c #2D8D13",
"B  c #2C841C",
"V  c #2D8C1B",
"C  c #26861B",
"Z  c #328C14",
"A  c #3B8C14",
"S  c #338B1B",
"D  c #378719",
"F  c #2D9313",
"G  c #2C9518",
"H  c #349314",
"J  c #3B9413",
"K  c #349C14",
"L  c #3C9B14",
"P  c #35931B",
"I  c #3B941B",
"U  c #349B1C",
"Y  c #3C9C1B",
"T  c #3AA408",
"R  c #3DA314",
"E  c #3CA31A",
"W  c #37A516",
"Q  c #34A717",
"!  c #2B8724",
"~  c #358C23",
"^  c #388A25",
"/  c #359423",
"(  c #3C9424",
")  c #3C9B23",
"_  c #3B932A",
"`  c #3C9C2B",
"'  c #359628",
"]  c #3C9633",
"[  c #2E912B",
"{  c #3BA326",
"}  c #3EA134",
"|  c #439B0D",
" . c #449808",
".. c #439C14",
"X. c #439B1B",
"o. c #479818",
"O. c #468D12",
"+. c #43A40B",
"@. c #48A808",
"#. c #53AA0A",
"$. c #49B309",
"%. c #57B60B",
"&. c #44A414",
"*. c #4BA515",
"=. c #43AB12",
"-. c #4CAB13",
";. c #44A31C",
":. c #4BA41C",
">. c #45AB1B",
",. c #4BAB1C",
"<. c #53AC13",
"1. c #53AD1B",
"2. c #57A71B",
"3. c #4CB214",
"4. c #4CB31B",
"5. c #4AB713",
"6. c #53B314",
"7. c #52B21C",
"8. c #5BB41C",
"9. c #5AB918",
"0. c #66B81A",
"q. c #64B40F",
"w. c #448927",
"e. c #439523",
"r. c #449C23",
"t. c #4B9C24",
"y. c #439C2A",
"u. c #4B9C2B",
"i. c #46952A",
"p. c #449B33",
"a. c #4C9C31",
"s. c #479738",
"d. c #539A37",
"f. c #509928",
"g. c #44A323",
"h. c #4BA423",
"j. c #45AB23",
"k. c #4BAB23",
"l. c #44A32C",
"z. c #4BA42B",
"x. c #4CAB2C",
"c. c #45AA2C",
"v. c #53A423",
"b. c #53AC24",
"n. c #5AAC23",
"m. c #52A42C",
"M. c #54AC2B",
"N. c #5BAC2B",
"B. c #5BA627",
"V. c #4BB326",
"C. c #53B423",
"Z. c #5BB424",
"A. c #5CBA24",
"S. c #54B32C",
"D. c #5CB42C",
"F. c #5CBA2C",
"G. c #55BB28",
"H. c #4BA433",
"J. c #4AA736",
"K. c #52A333",
"L. c #54AC33",
"P. c #5BAC33",
"I. c #54AC3C",
"U. c #5CAD3C",
"Y. c #58A439",
"T. c #4EB234",
"R. c #54B334",
"E. c #5CB333",
"W. c #5BBB34",
"Q. c #55B33B",
"!. c #5CB43C",
"~. c #5CBA3B",
"^. c #55BA36",
"/. c #63AA27",
"(. c #63BB24",
"). c #62B42C",
"_. c #64BB2C",
"`. c #68B827",
"'. c #72BB2D",
"]. c #64AB37",
"[. c #63B434",
"{. c #63BB34",
"}. c #6ABC34",
"|. c #63B43B",
" X c #63BC3C",
".X c #6CBD3C",
"XX c #6BB337",
"oX c #74BA38",
"OX c #5BC519",
"+X c #68C51A",
"@X c #76C919",
"#X c #5BC327",
"$X c #5DC233",
"%X c #65C42B",
"&X c #6AC628",
"*X c #74C728",
"=X c #6AC234",
"-X c #64C23C",
";X c #6BC33C",
":X c #67C636",
">X c #76C839",
",X c #7BD338",
"<X c #76D32C",
"1X c #4B9942",
"2X c #58AA44",
"3X c #5AB647",
"4X c #53AB4A",
"5X c #65AC45",
"6X c #6BBD44",
"7X c #65B847",
"8X c #72BD47",
"9X c #66B855",
"0X c #76BD54",
"qX c #74B161",
"wX c #72985D",
"eX c #6AC548",
"rX c #73CB44",
"tX c #7BCB44",
"yX c #75C849",
"uX c #7AD348",
"iX c #77C755",
"pX c #70CA51",
"aX c #7AC963",
"sX c #84D238",
"dX c #88AF64",
"fX c #88D748",
"gX c #87D757",
"hX c #85C953",
"jX c #88D768",
"kX c #8FD36D",
"lX c #84E14A",
"zX c #A6998D",
"xX c #9DB586",
"cX c #B5A89B",
"vX c #A9B194",
"bX c #BBAEA3",
"nX c #B6ACA3",
"mX c #BCB2A6",
"MX c #BDB4A9",
"NX c #B8B9A8",
"BX c #999586",
"VX c #C2B6AB",
"CX c #C4B9AD",
"ZX c #C5B6AA",
"AX c #C5BCB2",
"SX c #C9BEB3",
"DX c #C6BBB4",
"FX c #CBC1B5",
"GX c #CDC4BA",
"HX c #C6C0B5",
"JX c #D2C9BE",
"KX c #D1C6BC",
"LX c #D4CCC2",
"PX c #D4C9C1",
"IX c #D7D2CC",
/* pixels */
"$.R.) >.J.=.M.< F T.3Xe _ Z.z ^.R.T p.H +.G.OXz M P $X{ T ,.o.J.$X%XjXhX.XgX.Xb.P.).&.H 6XR.[.gX&X`.aXyX.X[.P.2XL v ;.%.}.O.*.j ",
"&.g C.j ;.c 4.` Y t F L ` L.V x.b G.G.1 j S.E / e.G.T.E.p.) : { T V.@XfX}.0.oXyX[.Z.N. X0XtXyX}.&X<XeXfX).X.h.~ A v 1 _. ._.yXz ",
"H ;.` G.V.>.,.K Y $ ' x.b :.H...Y L 7.H V Y V =.L.;.g.rXB.y p j.$.,.@.eX|.>XjXtXfXsX8Xm.0X@XfXfXW.Z.8X>X`.jXU.5 I v.:.$.+XA.yX..",
";.^.y z 3.H { 7 V N e R j t.B m 1 7.;.,.] I g.-.e s j.{ #X=Xn.yXQ.1.>XoX_.6X5X;X0.2.`.eXgXgXn.=X*X.X&X{.[.8.gX}.6X7X..b b e.8.).",
"! ,.K U M g 9 R t l.e n 1 y.-.-.v.8.m b.I.Z...g.n..Xs p } 7XH t 3Xz.t.8.N.|.`.w.b.pX;X*X>XuXW.$.uX[.2XrXZ.yX).XX8.gX5X*.E.D.@.<.",
"e I.V.: , p ~.T 3.4.F a ~ H H : z  XJ I R.F.Z.eX1.z.c !.M.Q.W.T.,.I.3X{.U.tXsXhXF.7.7XA.{.+X~.J.W.k.R F.3.-.n.7X>X'.}.,X0.&.`.0.",
"y s P E k c.B % i ;.g y ( h.I g.N V -.Z X.;.z S.S.{ $X:X(.;X9.z.z Z...,.&X8.2.hXiXyXW.k.=XA.8.S.~.) a S.+.i [.gX*.`.'.B.0.( }.Z.",
"B Y Y H k z l L m u ! j X.y ( Z.f u k W x.k.e 9XZ.Z.C.T G j.T.j.2X*Xh.Z R V :.&X*XXXjX&XtXZ.M.&XyX:.Z D.D.s.fX8X_.}.oX*X,X{._.6X",
"@.d b.z z n L $.<.d N.x ) V J.x.h ~.pXc C.6Xe.[.E.3X;X%Xx.z.&.*.+XC.C.{ !.<.N.M.b.|.lXM.l.3.j W.q.yX(.^.~.#.q.`.).uX(.Z.7.8.z H.",
"s - ~ % * ! ) <  .b.Z.< y &. Xh.B A.&XI J.z.(.$.A.,.k.X.6.9.!.x y ] -.S.eX+.r.I.!.,X9.b 4.;Xc.X.7.jXgX,XZ.P OXrXiXd.J Z.h.z J.6.",
"H z.M.g.F * { ( & ;.S V.-.3Xo.i v.eXA.(.E.H.L.b -.Z s e.rX,.p.L { Q.W.N.eXc -.:.E.&X{.A.$.F.-Xy.{ G.6.rXS.D.k.&X>X`.tX%.8.n.X...",
"V a < P =.k N P C N Y H O Y :.^ 2X(.OXy & U.c N.&.:  X^.9XI )  X=.2XP.D.Y G H.&X7X| { -XR.H.4.:.' # / 4.7.J.L 4 D sXkXrX+X*.X.).",
"& z L H 9.J.C 4Xl J ..V N t V.h.A N Y A j.c.,.9.k.x.x.g.Y 3XeXC.U 4Xt.t.T.c.3X&.S.k.0 pXQ.l.;.=XyX;XjX2XS j h.3XgXU.jX<X*X}.iX>X",
"=.y X r._ j $ A.;.v x.>.c @ V H |.1 ; Y #XR >.K V W.z H g l.V.7.S.P ^ N.Z P <.W.9.eX$XeXT.}.h.x.{.<.2X;.4.g.7X`.q.'.=X<.E.iXZ.%.",
"p % H {.H B H.Q.] ^.R @ 9 0 !   u e.!.W g H p $ 1 ) :Xc I P ) R #XV.b H 9Xb.,.y.n.h.f 3.L i ~.x.,.g.W k.C W.hX2.|.5X).| d |.&XW.",
"* V l.&XI I & h.7.H : F P 1Xr Z = p V 8 j.=XB._ &.r.=X;X;X+.Y k.B ' J.H <.n.E.J.o.3X3Xj.,.yXpX&.>.7.(.}.D.G.Q.E v.m.9.b.%.8.r.L ",
"I ( v L z e.V.u O & ^ Z @ ( ' x J X.D Z.p.J $.-.p <.C.).uX{.C E k.L S.v P aXI.(.* 3X-XiX,.#X[.(.L.OX:X9XkX.XE./ Y R n.8.-./.:.g ",
"4.E e 3 u.).;.T m | k   O ;.[.3.M.r.W.=.L R.L.l %.6.P.eXG.3.t K G.W.7X>X8XyX-XW.;.h.U 6.k.< -.!.x.0 OXfXkX;.p K *.k |.kXm...m.h.",
"] o.m Z g.j.t h =XD : u b D w.g v R.j y c S.eX7.C.&X>X'.n.4.V.c.M.:.E.>XE.<.0.1Xr.z.7XH g.J c [ D & c &XjX9XY &.M.{.eXt.A.q.<.b.",
"m g.x.f = X X C _ ,.7XV.I D Z.S b 9 K m y A.&XF.P..._.3.v ,X,.C.+XN.m k.Q.-.b.L.-XeXeXM ~.yXF <./.b.b W T.|.z.v ] t.[.J @.0.tX!.",
"T ;., A   X X 0 # K L s > 3Xc.b.( 3Xz.a C.b 9.m.K k.)..X|.*.i j $.H  XpXa.T R.G.m.eXA.k ;.iXW.).rXuXX.Y.hX..` L 7XL e M.v. XgXhX",
"D., 1 H * * h 0 @ N m _ j.{ x.` B v J Z 1.D L.tXk.8.Y :.S.H 5Xi.J.pXl k.T.9.x.3X:.S.>X~.;.8.u.Y.).[.iXb.(.>X;XE.s 7.l ,.8.>XtX>X",
"a * ) G t T S - 1 m P b.l n g./ ) +.>.R.S ~ ( 1.Z.^.7XA.{.tXU 1Xg.$X= 9 K E N ..9.%X>.7 c k.t.+XF.5XgXR.^.Z.5XvXLXGXzXc 8.n.j 9.",
"/ L.o . B N z P X > r P > D B n n ,.%XE & ,.I I .XiXx (.7X>...=Xj.=.- H :XI l.-X*.eX[ f #X5.+X' =.,..X.XyXAXCXbXKXdXFXGX`.S.g +.",
"- _ :.o m K g.! ! k h ! Y l.~ o.2 H h J I x.) <.b j.M.e.#XT E T.W.L.-Xk.R R j.j.6 7.k.l.;.7.R &.Y.NXnXVXMXcXGXmXDXDXKXGXGXqX`.| ",
"u % m = K M @ t g e 3 2 u 8 G B H c V ..m.;.y.0XY./ z H.Y T k.4.1.H R x.% 7 >.E U T.v T xXHXNXHXMXMXcXVXCXmXbXcXbXnXKXPXSXPXgXP.",
"0 O 9 N E 9 * K h 0 3 2 ' 0 ) [.g K ` 8 x J.F.y.0XY g 3XP r.( T J ; a f / ^ s.E.VXVXmXVXCXHXCXJXLXGXCXVXMXmXMXnXcXDXPXPXKXKXK.*X",
"e Y p.r & N ~.Z.+ W j.N z a 2XX.1 + I.4.H = T U 5Xg.!.2X~.E.9X` r.J.] Y vXMXAXAXVXVXZXAXHXJXJXFXGXGXHXCXFXAXMXPXVXKXDXKXGXxXx d ",
"X & 1Xz.1 & :   d k i 3 X.R F 8 E.5XQ.x Y X.K Q.2X3XeXP.x.R |.! , AXZXSXGXFXHXZXDXAXSXSXHXGXAXmXmXnXNXMXVXnXMXMXMXGXFXHXGXS.-.5 ",
"- # < H @ = 1 - H , d.1X< h h 3 ' < t F c u.,.W.3Xx.&.!.j.^.FXHXCXSXSXAXHXVXZXCXAXFXzXMXAXCXxX&Xb.L.X.k.h.{.-.!.DXHXDXAXp.}.).`.",
"7 ,.Y % X V >.u f ) & 4 s.Q c e.q 7 U h Q c.^.g s.K _.NXHXFXSXCXSXCXAXMXMXMXmXMXNXNX{.t.t Y 0X&X@.B y V ; X.,.7._.L @.b I b ..2.",
"s s g.e c ; a Q.H $ < m x f 8 Q K L ^ [ k ) J X dXDXFXSXGXFXGXZXCXCXMXMXMXvXA.P 3XyX8.R.d.I Q s t.p.e t / O 3.,.=.iXb.%XZ.P.B.tX",
",.1 x ~ 1 s I w.2.m / C $ H.r., :.5 s B.m.DXZXSXSXSXSXSXGXZXVXCXbX2XB R.F.W.u : { yX_ V ) g.j.q N y. XE.I N c k { Q.%.}. X$.E._ ",
"0 $ { [ MXPXVXw.C 5 - p.i.@.OXm.H.cXcXcXbXKXPXPXZXPXKXDXbXbX2Xp g A l.#XW.x.= m Z -.;.^.# n V.Y | C.k.k.H I.Y f L.V m 5 o.iX8XXX",
"C o <.j JXJXKXzXcXcXCXGXGXIXKXGXFXAXcXbXZXcXnXcXVXbXbXwX^ ' _ B { - @ j.7 U W 7.-.R >.6XZ.r.&.D Y.k.W U r =X7Xs.M.>X:.i # ( a.*.",
"Y 5 O.dXSXcXmXGXFXGXJXGXMXLXGXGXKXGXDXcXcXcXcXcXcXS d.O 9 y eX4 : !.l.! G f S.#Xk.T.k z.eXI.h.B.Y.3Xc.-XeX;XE.m.2X2X6X6Xx.;.+ z ",
"-.3 6 . bXPXPXPXzXcXFXKXJXAXLXLXCXMXNXcXBXwX1X7XL.9 f.!.Q P 3XO.A k._ < Q c.^ +.{ x.L E ^.A A.;Xx.pX).[.:...8.%.=X[.eX0.<.p.5 5 ",
"D 3 vX^ nXcXSXKXMXzXJXCXHXJXGXMXVXBXt &.y.8 B iXeXL ^.z.F W eXS D.|.h.E.I.V.:XJ f {.I.4.=.=X+X:XG...Y.f.x 7.;XeX;X.. .9.;X!.8.r ",
"Y m = R j CXLXGXVXVXZXCXCXMXnX; 1 l.&.$XH H.r.K.z.eX{ T.y p p.I.^ m.U.Z rX5.5.-XS.-XI.5.R.S.%.rX%.U.9X_ C.$XL.d.l j 7Xa.I j y G ",
"3 . & t o xXSXcXmXmXmXcXcX>.R g., + p B.yXE 8 & - I H p z.a.9 o.9X[ u.|.G f , G *Xs.C *.!.$.eXO.d.yX,.S.;XA.F.e.t >XjXt...:.Z.E.",
"  % ! , # FXnXmXmXnXdX2 / m a M D I W [ h., y.8 z J.2Xu a.d.Z H h E X.;.H.s (.u.^.E _.3Xh._.I d `.D.S.aXA y T iX3X;.5Xy.b.hX0X'.",
"> {   X m wXMXMXcXi A 6 ) % j 7 P.X.N m P ] ) B y.5.G x.:.J 2 i l e h h.k.=XV.{ +.9.W 7.( H.'.2.fX*.N.N.Z. X..,.v.A Z ).*X*X].iX",
"  $ O I E &.H c ,.e n $ &.4.l.] Z B 1 ] Y l._ r.n 8 p m 6Xr.V 3X2.iXd W.J.l.L 7...p.i g.( |.8XoX2.hXXXI Z.%.2.:X{.K.J P.B.%.fXo.",
"O d h i.h B ,.+.L.>.' %.H j.@ ) , L.y.y.c P S ^ Q.t 4.c ,. XI & 5 rXe.V &.= Y.U.eXn.].x #.w.W ~ 0.8Xd. .m.| ..#.|.H.A L.o.<.,.6X",
"2 @ t 4 8 - E p o N % x.) T =.j L $ j.>.k h.L - ^.r.d.U U }.b.9.J {.V.^.q g.4.k ! -X$XZ.e.3Xa.J.2.x o.D.I.Z.<.(.0XA.&Xb.A i.z.e.",
"( T.+ y F E S ! 5 [ k.S a f >.T o.n c 7 j.,.z / / D 0XT.L < r.;.t.%X$.-.g K f =.t 4.j h...1.8.8.1.t.1.A.&X*X5X .r.| ;.tX(.2.XX< ",
"j :X3Xm e G Y c v V ;.a ;.y 1 H W.=X!.l.e 1 L.a.~ X.v.^ 6.z g.%X>X.X>XC.( F b 7.,X3.2.V v J K >.7XA #.o.=X`.hX/.k.!.y tX.XoX .6.",
"c T 3 _ ..8 E w 0 y -.:.S.v.o.7X=Xi.O.m X : r ].d.N , yXeXW U 5X~.g.j 8.pX1Xz &.Q / $X .e.v.M.C.w.M.s.XX[.p.l d.h.[ N.@.D.o.fX.X",
"e o r p.< # G @ $ ;.{ p e W h.n ` o.A S.;.H t.d.b 6 2XL.v.L t.B I ( M.-XE.`.f.K.U I O.n.:Xl P.f.o.1.T z M T 2.5 O.o.}.v.Z.+X,XN.",
": u ( 3.e 2 & ; f %XP @ ` + K ~ ' -XpX9.=.V K.f.f J.G % X / |.;.u.s.B >.J 1.F.I.x.*.i.iXq.3XiX! 2.#.q.%.T $.-.).0.:.v.@.@. .2.v.",
"f t a t B i O + 2 K s r V J.7 1 ,.%X7XE.9.%X&.^ H A l.] D H e.i M x.p z x a.:.Y.W p.7X}.X.k B A Y i _.J ` R.v.>X..j _.oX .8.2.fX",
"=.4.3.9 a T f #X@XT R J.o w.j.T ) R./ u.^ B +.m S ) k.I J.u t N g f M J.b 8XD y.U N / E C.@.b 3.Y.[.y ; d  .q.+Xf x.[.O./.N...%.",
": R j.  Y g.=.%XK.u P _ u.XXg.Q h ,.B !.g.n z ;.1 L _.z J.U t / M.[.Y V ,.L F c T.H g X  .;.%. X0X].2.| r.<.@.9 8.B./.'.'./.O.B.",
"J.s ! B & * % K j e a -.-.X.) a M t F L.h.m m !.P.1.5 e.d o.7 $ uX6Xv Y N y.a t y i.}.5XZ v.@./.].2.kXiX6.yX# y D.oXsX0.sX@X .4 ",
").I x y x ;.O @ = Y k.&.E W R.,.W ) R :X) b.*.( y.T L.Y Y ( ' k.-.e g.$X7XL m.B w.L.' z.i.2.:.*.%.rXM.4 v.s.4 t.g eX>X#.@X@.*.L ",
"N./ # x.~ B 8...R y.4., o % 2 k.E M p n ;.F._ N I e 2X,X{.8Xu.4 i.I * J y.y.L.g.( ' @ f _ G.<.Z.sX].z d 4 w.#.d o.<.0.[.U.I x O.",
"- 9 X = 9 Z , y 0 p >.{ @ Z W.t h ( p F y.-.y ! W.V.= B t H :.).J S 5Xz X X.7.J.E v t Z oX}.U yX2.O.| X.<.%X&.oX#.2.0.2.K.v @.u.",
"7 =     K g._ M g $ H y ) E.:.;.*. .r W M.t.e & 4X+.r r k.g &.d.v.d 1 o.Z.! ^ *.0X1  XY.3.Z.8X].>X(.`.y.$.).0.I @.].`.@X+X1.(.X.",
"M W q G 2 a V :.P 3.# , M.S m ( [._.;.; g y.a I I ;X:X+.I R , u.i.v.>.e.'.F.t.4 w.:.aX+X@.=.Z.^ 8.Z o.].L 3 A.C.d /.'.0.v..X_.(.",
"eXR w K - X F ^ P 8 + 6 1 M z l s.) j 9 8 k.E t X.z.r B 2 P Z.- _ < 0./ Z `.[.(.2.R z n.S.f k.&.I I <.`.XX/.k t.s | n.5X4 d *.&X",
"q O   # r j $ u : + 9 = @ h n z.9 9 f Z.Y f L k (.z.X.7.&XK g.< u.9.XXc.* N.F.C.o.o. Xo.i M ] k +.v.O.O d /.h.$.&.*.| .XF.b.x (.",
"< o r 7.Y.8.@ K % 7 P S r # ! : 7 M # %.}.( K...e.^ | @.i L ^ i  .D F ).J R ( b D oXd./.hXh.0 q.XX$X0X2 b 8.1.s L :.-.<.d r.I b ",
". ;.V.; :.i X $.* + S T &.Z x . = 0 B  X;.] 9Xf.o.I i *.d a L. .u.5X3XP.K.c @.#.'.].sXhXsX*XN.6./.r.6X>X+.y &Xd.e J Z X.J ..z I ",
"r k 1 L e o.x F h * L G ) x r G N 8 7 s.+ h y. .x Z ,.e.%X7.g.Z.J Y 5 H 9.0Xx X.q.h.qX.Xb r Z.F.XX/.o.>.n O.K.2.D.J b.n.v.}.+.;X"
};
