/* XPM */
static char *download_resized[] = {
/* columns rows colors chars-per-pixel */
"64 64 255 2 ",
"   c #030102",
".  c #0B0302",
"X  c #0B040A",
"o  c #16060A",
"O  c #19120D",
"+  c #090412",
"@  c #170A16",
"#  c #1B1417",
"$  c #260A17",
"%  c #271719",
"&  c #341718",
"*  c #2D110B",
"=  c #2F231C",
"-  c #1C1725",
";  c #271A24",
":  c #371928",
">  c #2C1728",
",  c #2A252B",
"<  c #372729",
"1  c #382A33",
"2  c #3A3339",
"3  c #2F2932",
"4  c #431C2E",
"5  c #472928",
"6  c #48352B",
"7  c #57372D",
"8  c #482636",
"9  c #493837",
"0  c #573B39",
"q  c #542A39",
"w  c #653833",
"e  c #42201C",
"r  c #3C6436",
"t  c #3C672D",
"y  c #375E35",
"u  c #4D7A1D",
"i  c #5A463B",
"p  c #4B433A",
"a  c #694739",
"s  c #446A38",
"d  c #4B7438",
"f  c #547A3B",
"g  c #4F732C",
"h  c #3B3946",
"j  c #352E40",
"k  c #4A3944",
"l  c #563747",
"z  c #56324A",
"x  c #643D55",
"c  c #673B47",
"v  c #3F6543",
"b  c #4A4349",
"n  c #584547",
"m  c #5A4955",
"M  c #575258",
"N  c #4A4956",
"B  c #654946",
"V  c #66534A",
"C  c #67465A",
"Z  c #685757",
"A  c #765A57",
"S  c #744F4B",
"D  c #557B43",
"F  c #4E6A4A",
"G  c #776559",
"H  c #747154",
"J  c #595865",
"K  c #504C61",
"L  c #734D64",
"P  c #6A5965",
"I  c #765667",
"U  c #78576D",
"Y  c #796666",
"T  c #776A77",
"R  c #7B727C",
"E  c #70746B",
"W  c #89593A",
"Q  c #885A4D",
"!  c #886759",
"~  c #946856",
"^  c #99735C",
"/  c #8B7252",
"(  c #A87657",
")  c #AD7A51",
"_  c #856866",
"`  c #897767",
"'  c #997969",
"]  c #877675",
"[  c #967977",
"{  c #8D6A72",
"}  c #A57A68",
"|  c #A47672",
" . c #845C69",
".. c #5B8A27",
"X. c #5B8938",
"o. c #5D933A",
"O. c #66962D",
"+. c #638B39",
"@. c #6C9A3B",
"#. c #689638",
"$. c #739B3C",
"%. c #608C2D",
"&. c #74A33A",
"*. c #6FA12C",
"=. c #5D8644",
"-. c #5F9043",
";. c #628B44",
":. c #648C49",
">. c #659343",
",. c #6A9544",
"<. c #6C9A44",
"1. c #6A954B",
"2. c #6C9B4A",
"3. c #669847",
"4. c #729D44",
"5. c #729D4B",
"6. c #779A4A",
"7. c #749D52",
"8. c #789A55",
"9. c #708E53",
"0. c #6CA04B",
"q. c #74A14B",
"w. c #7AA44C",
"e. c #79A545",
"r. c #76A252",
"t. c #7AA453",
"y. c #7CA659",
"u. c #748375",
"i. c #8C8D56",
"p. c #AF845C",
"a. c #84A94D",
"s. c #84A857",
"d. c #8BB25A",
"f. c #97B55A",
"g. c #8A8666",
"h. c #96886A",
"j. c #998777",
"k. c #9B9279",
"l. c #8D8775",
"z. c #A68977",
"x. c #A7967A",
"c. c #BB9774",
"v. c #B08A6F",
"b. c #8AAA65",
"n. c #93AB67",
"m. c #96B86A",
"M. c #97B073",
"N. c #A6B079",
"B. c #C89474",
"V. c #C5A47C",
"C. c #B0C67A",
"Z. c #7B7685",
"A. c #8F7A85",
"S. c #A67685",
"D. c #988888",
"F. c #9A9688",
"G. c #8D8797",
"H. c #9D8A94",
"J. c #949793",
"K. c #A68988",
"L. c #A89987",
"P. c #B79688",
"I. c #A99998",
"U. c #B59C98",
"Y. c #A68B96",
"T. c #A9A388",
"R. c #B8A489",
"E. c #ABA594",
"W. c #B8A997",
"Q. c #B8B29A",
"!. c #ADB988",
"~. c #9D9BA3",
"^. c #AB99A5",
"/. c #B9A9A6",
"(. c #BBB5A4",
"). c #B3B3BB",
"_. c #B3B4B7",
"`. c #ADABB1",
"'. c #9AA596",
"]. c #C99D89",
"[. c #C7A48A",
"{. c #D4A889",
"}. c #C7AA98",
"|. c #C7B49B",
" X c #D8B799",
".X c #D5AD93",
"XX c #E3B99A",
"oX c #C8ABAA",
"OX c #C8B9A8",
"+X c #D6B9A8",
"@X c #C9BCB5",
"#X c #D5BCB7",
"$X c #C9A4B3",
"%X c #E5BDA2",
"&X c #E7BFB2",
"*X c #CA9FAE",
"=X c #B4C58D",
"-X c #BCCCA3",
";X c #CBC39D",
":X c #E8C39F",
">X c #C7C5AB",
",X c #D9C6AA",
"<X c #CBC4B4",
"1X c #CAC6BA",
"2X c #D4CBBC",
"3X c #D8C7B8",
"4X c #DAD6BB",
"5X c #CCD6AD",
"6X c #E9C5A8",
"7X c #F1C8A9",
"8X c #E6CAB7",
"9X c #F3CDB6",
"0X c #E8D4BB",
"qX c #F3D3BB",
"wX c #F6D5B8",
"eX c #CCE0B5",
"rX c #BCB9C1",
"tX c #D2BBC8",
"yX c #D3CDC2",
"uX c #D8CAC5",
"iX c #DBD3C4",
"pX c #DBD4CA",
"aX c #D8D5C8",
"sX c #DDDAD4",
"dX c #CFC8C8",
"fX c #EADACD",
"gX c #E6D7C7",
"hX c #F3DCCB",
"jX c #F6D9C5",
"kX c #E6DCD4",
"lX c #F2DED2",
"zX c #E7CCC4",
"xX c #DBE1C6",
"cX c #E7E4CC",
"vX c #F6E2CC",
"bX c #ECE3D4",
"nX c #ECE4DC",
"mX c #E9E6D9",
"MX c #F4E2D2",
"NX c #FAE4D3",
"BX c #F3EADD",
"VX c #FBEADB",
"CX c #F7E6D8",
"ZX c #FAF3DE",
"AX c #ECE8E4",
"SX c #F6ECE6",
"DX c #F5F3EC",
"FX c #FAF4EC",
"GX c #FCFAED",
"HX c #F8F4E5",
"JX c #FCFDF4",
"KX c #FDFEFB",
"LX c #F7F7F2",
"PX c #EEF1EB",
"IX c #E7D4E8",
/* pixels */
"G.P n G  .5 ; Z.T h 3 b l 0 7 A _ Q ^ ^ ^ ^ / ! ~ ! ' ! | a & * * 2 N E Z.G.G.R 3 + h J N # + + 2 b @Xp O = p 9 , j K J K G.rX`.",
"T k V G _ A 9 Z.Z.j + o 9 i n n Z Q ^ } ^ ^ ~ ! ' ~ ' ^ z.! a 7 * = j b J T H.T 1   3 h 2 3 +   M T @Xb # # N b 3 j h K K ~.`.rX",
"T 9 l B 0 A I T Z n ; > G Y G V P [ [ z.' ' z.' [ ' | z.x.' A 7 * O % ; ; k Y.C ] n l.D.u.D.R T A.S.@XI < 3 2 3 - - , h K ~.).).",
"V 6 9 0 a A Y K._ _ Y ] Y.P.L./.$X^.U.I.U.W.U.P.U.U.L.K.A a S A 7 0 0 1 @ < H.U.H.D.dX1XyXdXdXdXuX#X@X] M m < % - , 3 h K ~.).).",
": $ @ 1 c 0 T kXkXgXlXU.5 5 V #XdXtXtXdXU._ A I H.Y.H.D.5 6 * w a 7 S * o % I.I.5 9 9 1 2 < < < 9 Z dXM % & 1 ; - - - h K `.).).",
"n 2 Z.Z.P 0 U A.Z E Y i e e B U.U./.^.(.I 7 5 e .   . o & 7 * Q ^ Q z.& & < /.Z n ` L.^.^.`.E.F.I.I.sXD.% @ 9 : + - - h J `.).).",
"Z.J Z.Z.G.J P ] 9 i i 6 7 e 7 ` 7 6 = 5 a 7 7 B Z m P = < i * { } / U.K./.1XmXnXFXFXJXJXKXKXKXKXKXKXJXLXaXM i < + - - h K `.).).",
"- - , K J h , ] Y P.#Xa w 5 6 z.G G W.! i i 5 K.@X/./.$ < Y K.#XzXgXBXJXKXJXJXLXJXGXGXGXGXHXHXZXHXDXGXLXKXiX] < + - - h J `.).).",
"M J R Z.T E N G.G ] D.A p < O Z Y ` 3Xj.S i e 0 Z T A.V I.SXKXKXJXLXJXLXHXSXHXSXFXFXFXHXZXVXvXjXvXVXSXFXSXHXzXm - - , N G.).dX).",
"~.~.~.J.J.~.~.~.G.A.E Z.A Z P [ ] A Z Z Y n n Y Y.@XkXLXKXKXJXKXLXLXHXHXVXVXCXVXVXVXNXNXNXjX9X%X:X0XjXNXVXAXMXk.2 h N R rX_._._.",
"F E u.u.u.E E u.u.J.J.J.~.~.^.~.J.'.J.J.I./.sXLXKXKXKXKXJXKXKXJXGXGXGXZXvXvXvXNXNXNXvXNXwX%X].B.v. X&X0XhXgX8X8XD.R R G._._._._.",
"F v v r r v r r y t y r v v F E E u.R J.tXPXKXKXKXKXKXKXKXJXJXHXZXNXNXvXhXhXjXvXhXvXwX9XXX].( W ~ S a }.jX,XoX0X4XW.I.`._._._._.",
"t r t s r r t t r D t t r s r r d F H Q.PXLXLXJXKXKXKXKXJXFXFXNXwXvXjXwXqXqXqXqXwXqX7X6XXXB.) Q w a * B 8X#X].OX|.>X(.`._._._._.",
"X.d d d d F d d d s s d f d d d f u.Q.vXHXGXLXJXJXKXJXFXFXSXNXqX7X:X%X6X6X7X9X9X7X6XXXXXB.B.) w 7 /.^.9 /.&XP.P.x.E.@X).).).).).",
"D D D D =.:.D D D d s g d g f d 8.0XvXvXBXHXJXLXGXGXFXSXVXlXjX&X{.B.V.{..XXX6X6X6X6XXX{.V.B.~ 5 P dXaXA.U.zXL.' } z.W.F.J.J.J.'.",
"=.=.:.X.D =.D D d g g s s d f D ;XwXjXvXbXGXLXGXGXGXSXNXjXjX%X{.c.) p.B.[..X%X%X+X6XXXXX{.B.~ w ] ^.Z.G./.3X}.! Q ^ x.F d s s s ",
"=.=.:.=.;.=.=.=.D X.g D f D X.N.0X6XjX0XVXGXFXGXGXHXVXNXqX.Xv.| ( ( } B.V.XX%XXXXXXX%X%X%XXX} | { { I Y./.#X+X' w Q x.F F F v v ",
";.;.=.=.;.;.;.;.=.=.;.;.X.=.9.,X,X,X8XqXVXFXFXSXHXHXVXzX| { S.L c ~ ) B.{.XXXX%XXXXX7X7X9X9X].| | z.].}.}.+XOXz.Q Q x.9.D F v r ",
":.:.;.:.1.1.9.9.1.1.1.1.1.+.n.,X.XW.,XqXMXSXSXSXVXNXMXS.S.zXtXS.q w W p.XXXX7X%X%X7X7X7X9XjX+Xv.B.].+X&X,X#X3XW.x.' P.x.d t t t ",
"1.:.=.:.=.:.:.=.=.;.;.;.X.;.!.|.v.+XgX+XgXVXVXNXvXvXoXS.IXIXtX^.k 0 W B.XX%X%X7X7X7X9X9XwXjXjX].{.%X8X0XzXjXgX#XR.L.].[.8.X.d d ",
"1.=.-.3.:.1.1.:.=.X.X.X.+.+.N.{.v.0X|.z.0XVXNXvXvXfXoXA.IXIXA.T x x } {.7X7X7X7X9X9XwXjX9X8X9X.X.X%X8X8XjXlXgXhXW.v.v.v.g.:.:.:.",
"1.2.1.2.3.-.:.3.:.,.X.+.#.%.;XV.v.,X X~ 3XVXNXMXhXlX#XH.rXG.l l L ~ B.XXwX9X7X7XwX9XzX9X&X+X+X}.].}.6X8X8XzXfXVX+XQ ( ) i.D =.D ",
"3.-.#.3.-.3.3.3.>.;.:.:.+.+.x.V.B.{. Xp.+XNXVXVXlXjXuXoXA.A.[  .Q | ].%XjXwX7X9XjXzX&X&X].S.^  .B | 9X+X+X3XuXMX8XQ ) W / 9.+.X.",
"e.0.q.<.3.3.r.1.;.>.,.1.1.9.s.c.B.V..X[.,XMXNXVXlXjX8X+XU.K.v.} ( B..X&XjXwX9X9XjX8X*XY. .Q 4 & & 0 #X+X|.+X+XhXqX/ p.~ W 9.=.X.",
"<.<.<.0.0.<.<.>.3.,.,.1.7.9.1.i.) B.XX X,XvXVXVXlXhX8X+X}.P.v.} B.].XX7XwXwXwXqX#XoXK. .Q w * o * < P.|.R.}.OXgXjX( ) ~ p.+.X.+.",
"2.q.<.<.<.<.#.2.1.,.<.,.4.2.>.a.) p.;X:X8XvXVXVXhXjX0X+X}.[.{..X%X%X:X7X7XwXjX3X$X| c S w q o X % 2 _ L.L.R.W.0XhXz./ ( c.@.>.1.",
"0.2.2.2.2.#.@.<.<.3.2.,.<.@.>.#.a.p.N.6X0XVXVXVXMXjXjX8X6X8X9XwX9X7X&X%X6XqXzX$XI & & c 4 4 $ + @ b Y h.j.L.Q.0XNX[.W ( B.b.3.5.",
"3.2.2.>.+.@.<.<.4.5.5.6.<.<.<.#.$.s.N.5XcXVXVXVXMXhXzX8XgXMXvXjX9X7X%XXX,X8XoX[ & o % 9 : % @ @ @ n G Y h.L.W.4XjXqX^ W c.M.3.4.",
"2.y.q.q.0.4.r.r.t.t.t.6.5.2.7.q.a.9.N.xXvXVXHXVXMXhXjXzXlXVXSXjXqX6X+X X+X#XK.c o $ > : % O @ @ # n G G ` L.W.3XgXjX&X].;XM.,.4.",
"0.0.3.0.r.q.5.,.2.2.2.,.5.2.,.6.8.b.=XxXMXFXSXBXbXlXhXjXlXSXVXjX8X6X X.X X+X{ 9 % ; 1 ; o + + X % n A p H T.Q.0XjXjX,X.X|.M.6.6.",
"0.0.0.0.2.7.3.>.4.1.<.<.t.5.1.<.8.b.>XaXMXHXBXmXbXMXvXzXhXCXlXjX,X,X}.].}.W.Z 2 ; - 3 + X X . o , V n 6 E x.Q.,XzXhX8XR.|.!.s.y.",
"0.3.0.0.0.r.7.r.7.7.5.5.4.7.y.y.s.s.5XmXnXVXCXmXfXfX4X|.8XkXlXzX+X X}.z.].Y.m 1 ; - - X   + X O p G 6 7 ` h.W.OX8XMX0XT.}.,Xb.y.",
"0.o.3.2.0.3.0.0.3.o.3.2.>.5.5.r.t.b.xXBXMXmXmXmXfXiX3Xz.W.2XgX8X+X+XP.z.z.{ n 3 - @ + X X @ % 9 V G O i g.` R.OX0XhXjXR.|.4X=Xw.",
"0.0.3.0.0.3.0.#.o.X.X.#.>.r.t.r.y.N.xXBXnXmXmXcXkX3X3X` Z H.#X&XoX}.P.[ ' _ p , # @ @ @ $ < 9 A ` n o ` h.^ N.OXfXNXvXOXR.iX>Xa.",
"#.o.0.o.3.3.o.,.0.o.o.>.<.t.7.5.s.!.cXVXnXlXbXgXiX2X@X_ 1 n I.oX}.}.K.| _ V p < % % ; : 8 c Z ` L.= = x.h.h.c.|.NXNXVX0XW.4X>Xs.",
"o.0.>.-.2.2.<.0.#.0.5.<.s.1.r.y.b.M.bXMXkXkXbXzXiX3XOXG o < A.]./.U.U.K.' A B 9 0 l n B A _ _ ] E.O Z R.h.x.c.,XNXHXNXfXOXuX4Xn.",
"@.q.<.0.0.q.q.w.q.y.w.q.w.>.7.q.b.5XcXcXgXkXfXuX3X3XOXY . 2 L.oXU.[ K.A.[ ] j.{ [ _ { { ` Y H E E.O E L.v.v.c.4XVXSXnXlX3XuX4XM.",
"q.t.t.t.r.y.t.r.y.2.<.#.O.#.2.3.y.;XbXmXkXfXfX@XW.W.OX] O % _ +X[ 5 V Y L.W./.D.I.D.K.[ R Z p p J.% g.x.x.x.W.0XBXSXSXCXgX2X2Xn.",
"t.q.q.t.y.y.1.7.2.1.2.#.e.4.r.<.a.-XBXbXfXfXfXiXOXR.W.L.= . # F.Y . & 9 ^.1X@XD.I.D.A.Y n = O # M = h.z.x.R.|.bXDXDXFXlXgXdX-Xb.",
"r.y.y.t.y.y.y.7.7.9.7.y.t.4.7.s.a.!.xXBXfXfXlXcX0XOXW.Q.2     p 9   , q /.1XE.R D.R P M #       . p k.h.x.W.4XnXDXDXFXbXgX1X-Xs.",
"r.y.y.b.<.<.5.t.y.y.7.5.<.6.a.w.e.M.cXGXmXgXgXfX4X,X;X+XB     O @   , m *X_.I Z P m m z X         V z.h.T.(.sXAXPXAXSXnXgX2X=Xb.",
"q.2.2.7.<.@.#.e.e.w.a.4.e.&.4.6.a.Q.LXLXmXcXzXiX0X,X>XOXA     X O X ; m ^.H.8 m U m x k + X +   O G h.v.R.1XsXAXAXAXSXMXgX<X!.y.",
">.,.,.7.e.e.e.@.#.d.6.4.&.$.6.7.s.4XKXJXPXlXgX4X8X,X,X>Xj..   X O o ; U Z.A.z x L x x k @ 2 -   < ` ` x.|.iXmXAXAXBXSXbXpX<XN.b.",
",.;.w.w.e.e.w.t.a.w.w.w.a.,.6.8.M.xXJXJXFXSXgX3X|.+X,X2X(.%     @ # > U L x z z L x x : + p #   p H h.L.>XaXsXAXAXnXCXmXpX>Xn.m.",
"b.s.w.a.e.<.e.q.e.<.5.,.7.0.y.y.s.>XLXKXJXLXmX3X|.+X,XzX<X<   . $ ; ; L L m z z L x l : @ b O X i H h.R.1XaXsXsXnXmXmXmXsX-Xn.m.",
"y.s.s.a.q.4.q.@.#.0.5.2.1.r.u.y.b.aXJXJXJXKXFXkXoXW.<X4X>X2     , , + C L x z z x x z $ $ 2 X O a i.x.Q.1XyXaXsXsXkXbXCXgX>XC.C.",
"t.t.a.w.,.t.<.#.e.d.t.q.y.y.m.m.=XDXLXKXKXKXLXSXkXR.}.3XOXi     % , X k L z z 8 x C z @ @ 3 o = H h.L.(.1XyXuXiXpXpXbXbXvX5X=XC.",
"w.s.8.4.q.,.4.6.w.y.t.d.b.m.d.y.=XcXLXLXLXLXLXDXSXgX@XOXOXl.= . o 3 o 8 C x z : x x x @ ; 2 . 6 g.x.I.Q.>X1XyX2XyXpXfXcXcX5X;XC.",
"s.a.s.y.t.q.s.s.s.m.m.d.f.f.w.a.s.!.HXDXDXLXLXPXPXSXIX#X@XOXZ . X ; o > C C z : x C c o 1 , . V h.k.L.Q.OX1X2X1X2XiXcXcXfX4X=XC.",
"d.a.n.b.y.s.s.m.M.M.m.a.a.a.d.a.7.n.HXDXDXFXLXPXPXLXkXuX@XOX[ % $ # @ o x L z 4 L U q o ; # = H k.L.T.Q.(.-X>X1X2XiXaXgXfXcXN.m.",
"a.d.a.s.d.s.s.s.s.d.a.$.e.@.e.e.e.=XJXGXFXFXLXPXPXAX`.oX/.OXoXi % , $ X : C q 4 L U : % 8 # p g.k.k.L.W.Q.Q.(.(.5XiXgXcXcX0XC.f.",
"O.a.w.4.w.s.r.q.w.&.&.e.4.e.#.e.e.-XJXFXDXLXPXAXAXnXD.I.#XOXOX[ & > - @ @ z z z x x > l 9 * i h.k.k.N.T.Q.Q.Q.OX2XiXaXsX0XxX;Xf.",
"w.$.0.O.<.q.@.e.e.&.@.$.<.@.@.e.$.-XJXDXDXDXAXAXmXkX1XiXzX3XOX}.A & % $ $ : 4 : 8 q 8 x 5 & H h.` h.k.T.!.E.(.>X2XyXaXpX4XiXC.f.",
"@.#.@.<.@.@.0.e.&.&.&.@.4.$.#.e.e.eXJXHXSXSXAXnXkXpXgXgX2X<X+XOXP.0 & > $ : 4 $ : 8 L x % < ' h./ g.k.x.T.Q.-X1X1XyXaXaXiXcX=Xd.",
"&.&.O.*.O.&.e.e.*.*.@.O.4.$.#.e.w.5XKXFXSXSXAXkXkXiXzX2X,X>XOX3XoX' 5 > > > : $ > z { 9 O 5 ` i.i.h.x.T.T.Q.>X2X2XdXyXaX4XgXM.$.",
"*.*.&.*.O.O.@.@.O.@.@.@.#.#.<.e.$.5XKXDXDXAXAXnXpXuXuX<X(.OX2X2X+Xc.a & : 4 : $ & x { : ; 6 H ` g.k.N.T.E.Q.<XyXaXyXiXaXiXgXM.O.",
"*.*.&.&.@.O...O.O.e.4.@.#.+.4.d.@.-XJXDXDXAXAXmXpXuXiXOXL.|.2X2X<X[.Q 8 3 4 : : 4 x  .: > : H / h.x.T.T.E.(.<X1XaXaXuXpXiXsXM.%.",
"*.&.&.*.O.e.@.#...@.@.#.>.,.4.*.*.5XJXDXFXDXAXsXpXyXyX<XW.L.OX3X@X}._ B z 1 : 4 q  . .: > Y g.` h.k.N.T.Q.(.OX<X2XpXpXsXpXsXN.@.",
"*.*.O.&.&.e.o.O.O.O.#.#.X.4.@...4.>XLXFXGXPXmXmXaXyX2X<XQ.x.k.E.>X|.` n m k 4 8 q L S. .H.pXj.g.k.x.F.T.W./._.1X<XiXaXdXaXsX!.+.",
"#.%.@.&.O.&.X.#.#.*.O.@.X.+.#.<.w.=XGXJXLXSXmXsXyXiXyX1X|.x.j.L.}.|.K.n m z 8 8 z L S.*XIX@X` h.k.x.T.E.E.E.E.OX1X1XpXdXyXsX!.g ",
"$.#.q.&...%...#.#.O...#.$.#.@.*.$.!.GXFXPXSXmXsXaXyXdX-X(.W.K.x.W.oXW.I A.A.z q q c S.*XzXY ' x.T.L.T.T.T.'.T.(.1X@XdX1X1XaX'.g ",
"@.6.e.O...%.....u O.O.4.<.X.&.%.$.n.HXDXAXDXmXsXyX1XdX1XOX(.Q.E.W.oX@X] A.Y.L z q c | *XA.l L.T.T.T.x.k.l.F.F.E.@X(.1X-X(.aX=XX.",
"4.w...O.....u %...@.#.$.@.>.$...#.;.xXLXAXAXnXkX1X<XdX1X>X(.Q.W.R.OX@XH.k U U U L x [ [ l Y L.L.T.k.g.` l.k.k.E.(./._.Q.-XyXQ.g ",
"e.<.u ....%.u #.O.#...+.1.X.<.5.m.8.-XLXsXAXAXpX2X1X1X1X>X(.W.E.U.R.oX@Xx L L { { x l < 9 D.D.k.N.h.` E l.l.l.F.T.E.(.E.T.1XF..."
};
