/* XPM */
static char *grassbg_overlay__2__resized[] = {
/* columns rows colors chars-per-pixel */
"64 64 244 2 ",
"   c #010100",
".  c #080705",
"X  c #040902",
"o  c #0A0906",
"O  c #0D0C09",
"+  c #100F09",
"@  c #091603",
"#  c #15130D",
"$  c #19160E",
"%  c #191710",
"&  c #1D1A12",
"*  c #231F16",
"=  c #123309",
"-  c #252117",
";  c #2E2817",
":  c #262219",
">  c #29251A",
",  c #2E291C",
"<  c #302C12",
"1  c #352F13",
"2  c #312C1E",
"3  c #332E20",
"4  c #363122",
"5  c #3D3624",
"6  c #3F3826",
"7  c #3B362D",
"8  c #3A3830",
"9  c #423A26",
"0  c #443D2A",
"q  c #483F28",
"w  c #433E31",
"e  c #15470E",
"r  c #085804",
"t  c #195606",
"y  c #254C16",
"u  c #0B6805",
"i  c #156905",
"p  c #0D7900",
"a  c #157505",
"s  c #1B7C01",
"d  c #1A750B",
"f  c #1B7B0B",
"g  c #1A6913",
"h  c #1B7A15",
"j  c #286A09",
"k  c #257B08",
"l  c #34790A",
"z  c #257717",
"x  c #247D13",
"c  c #357B17",
"v  c #295E20",
"b  c #2B7422",
"n  c #47402C",
"m  c #4C442D",
"M  c #52482D",
"N  c #58552C",
"B  c #4E4630",
"V  c #4A4536",
"C  c #514931",
"Z  c #554A32",
"A  c #5C5234",
"S  c #5B573A",
"D  c #615636",
"F  c #655A37",
"G  c #675B39",
"H  c #695D3B",
"J  c #796C2B",
"K  c #6E613D",
"L  c #73653F",
"P  c #5A554B",
"I  c #655A50",
"U  c #736542",
"Y  c #766842",
"T  c #7B6D46",
"R  c #7D6E49",
"E  c #7F7149",
"W  c #716F67",
"Q  c #84742D",
"!  c #8C7C32",
"~  c #826D42",
"^  c #81724A",
"/  c #8A7A4F",
"(  c #1C8507",
")  c #199106",
"_  c #1D8315",
"`  c #248402",
"'  c #2A8305",
"]  c #2B8B03",
"[  c #268709",
"{  c #2B8D0C",
"}  c #368907",
"|  c #338C0C",
" . c #2B9303",
".. c #28970A",
"X. c #2D920C",
"o. c #349404",
"O. c #349C04",
"+. c #34930C",
"@. c #3B940C",
"#. c #389808",
"$. c #3C9B0C",
"%. c #298516",
"&. c #258A13",
"*. c #2D8D14",
"=. c #2B841C",
"-. c #318C14",
";. c #368819",
":. c #2D9415",
">. c #339214",
",. c #3C9414",
"<. c #359B17",
"1. c #3C9B14",
"2. c #34941B",
"3. c #3C951B",
"4. c #3D9C1B",
"5. c #3CA507",
"6. c #3CA417",
"7. c #36AA16",
"8. c #2A8524",
"9. c #378A25",
"0. c #358C24",
"q. c #2D932A",
"w. c #399527",
"e. c #3C9524",
"r. c #3A9C23",
"t. c #3B9632",
"y. c #3BA426",
"u. c #3EA134",
"i. c #449B0C",
"p. c #458B17",
"a. c #459717",
"s. c #439B14",
"d. c #439B1B",
"f. c #48A707",
"g. c #43A50C",
"h. c #53AC0D",
"j. c #4AB406",
"k. c #59B609",
"l. c #43A315",
"z. c #4BA515",
"x. c #4CAC12",
"c. c #44A31C",
"v. c #49A719",
"b. c #4AAC1C",
"n. c #53AB13",
"m. c #57A81B",
"M. c #4BB218",
"N. c #58B71A",
"B. c #5BB41C",
"V. c #66B80B",
"C. c #64BA17",
"Z. c #448A28",
"A. c #449B23",
"S. c #479929",
"D. c #569C28",
"F. c #469A33",
"G. c #569B35",
"H. c #44A323",
"J. c #4BA523",
"K. c #49A728",
"L. c #4DAB2B",
"P. c #53AC24",
"I. c #57A828",
"U. c #54AB2B",
"Y. c #4CB32D",
"T. c #57B726",
"R. c #5CB424",
"E. c #5CBA24",
"W. c #54B42B",
"Q. c #5DB52C",
"!. c #4BA535",
"~. c #57A937",
"^. c #5CB432",
"/. c #58B836",
"(. c #5DB53B",
"). c #6BAF2F",
"_. c #63BB22",
"`. c #67B827",
"'. c #62B42C",
"]. c #64BB2C",
"[. c #72B92C",
"{. c #63AB36",
"}. c #66B537",
"|. c #65BC34",
" X c #6BBD34",
".X c #63B43C",
"XX c #6DBD3B",
"oX c #68C51A",
"OX c #74C31A",
"+X c #5BC32F",
"@X c #6AC528",
"#X c #74C82B",
"$X c #68C437",
"%X c #76C839",
"&X c #7BD231",
"*X c #479843",
"=X c #58A843",
"-X c #54A949",
";X c #5BB745",
":X c #68BB46",
">X c #6DB84C",
",X c #6BC247",
"<X c #78CA47",
"1X c #6ED444",
"2X c #7CD246",
"3X c #74C654",
"4X c #77C663",
"5X c #958435",
"6X c #998937",
"7X c #A9953A",
"8X c #AA963B",
"9X c #B9A33D",
"0X c #84D239",
"qX c #B49D4A",
"wX c #87BD51",
"eX c #8E8364",
"rX c #AC9D74",
"tX c #BAA97D",
"yX c #C8B142",
"uX c #D4BB45",
"iX c #C6B57F",
"pX c #82C44A",
"aX c #86D746",
"sX c #84CA5A",
"dX c #86D657",
"fX c #87D765",
"gX c #89D573",
"hX c #DDC347",
"jX c #DDC348",
"kX c #E1CA5F",
"lX c #B4AA92",
"zX c #BFB7A2",
"xX c #C8B582",
"cX c #CBB586",
"vX c #DAC589",
"bX c #DDD389",
"nX c #E4CC8B",
"mX c #E8CF95",
"MX c #E3D6B5",
"NX c #CFCDC8",
"BX c #F4ECC6",
"VX c #F3F2EC",
"CX c #FCFAF4",
"ZX c #FFFFFF",
/* pixels */
"j./.r.c.!.x.L.[ *.Y.;X( w.T.+././.5.t.-.f.W.N.<.&.>.+Xy.5.J.d.!.+X@XfXsX[.dX}.P.^.}.s.-.,X^.}.dX@X_.4X<XXX}.~.=X1.$.v.k.].p.g.o.",
"l.X.T.o.6.O.M.t.2.] *.$.S.~.%.Y.o.T.T.[ #.W.6.0.r.T.Y./.S.r.h y.5.W.#XaX#X`.%X<X'._.U.$X>X<X<X'.@X&X,XaX'.d.J.0.@.$.x E.i. X3X+.",
"<.v.t.T.Y.b.M.1.r.s w.L.@.v.!.1.4.6.N.>.=.4.*.b.Y.c.K.<XR.] [ L.j.K.f.:X.X%XfX<XpX0X>XI.>XOXaXaX'.Q.3X#X|.fX~.k 9.P.v.h.oXR.<Xs.",
"l./.] ..M.:.r.( 2.*.( l.o.A.;.%.x P.c.v.t.4.H.x.' | H.y.+X$XP.,X~.M.%X$X'.:X.XXXC.n.@X,XdXfX`.%X#X X@X.X{.C.dX[.:XXXa.@.@.d.B.'.",
"8.b.<.2.&.X._ 1.( K.[ x z S.v.x.J.N.%.P.~.^.s.H.I.XX| [ u.:X2.[ ;XL.D.B.{..X[.p.P.3X,X#X%X2X/.x.2X|.=X%XE.3X'.}.B.dX:Xz.^.'.f.m.",
"[ ~.L.h ( &./.5.M.b.X.{ ;.,.2.h @..Xs.3./.E.R.,XJ.L.#.(.!.(.+XL.b.~.-X|.^.<X0XwXT.N.;XE.$XoX/.!.+XH.6./.M.x.P.>X%X[. X%XN.g.`.C.",
"] { 2.6.#.K.=.a { l.X. .e.H.3.H.*.=.x.>.4.c.@.W.T.y.+X$X_.$XN.L.<.T.d.b.@XB.m.pX3X<XQ.J.$XB.N.W.;Xr.{ W.f.%.{.fXz._.[.{._.e. X_.",
"=.3.6.>.O.+.5.,.;.' 8.o.d.  ^ T ^ E E ^ ^ E ^ ^ ^ ^ ^ G G G K G G G G G H G H H E E E E E E T T T Y U Y   F.0X<X]. X[.#X&X'.].:X",
"f.| P.+.#.=.>.j.n.| I.@.y ^ F X       .                                                       $ Z A L G ^   V.`.{.2X@XT.M.E.+.!.",
"{ g 0.d f z y.k i.J.U.[ + 6 tXtXiXlXtXtXtXxXcXvXnXnXnXnXiXtXtXtXtXtXtXtXtXtXtXtXtXtXtXtXtXtXtXtXtXtXnXnX* 5 N.1X2XG.p.Q.c.@.!.n.",
",.!.Y.A.:.f y.e.d c.=.W.E O tXtXnXnXnXnXnXnXnXnXnXnXnXnXvXtXtXtXtXtXtXnXnXnXvXxXxXtXxXtXtXtXtXtXtXtXtXtXD T L.@X:XR.2Xk.R.P.d.1.",
"*.{ x :.x.O.*.2.%.*.l.*.F tXtXnXnXnXnXnXnXiXtXtXtXtXtXtXtXtXtXtXtXtXtXtXtXtXtXtXtXtXtXtXtXtXtXtXtXtXtXtXnXG a.c p.0XgX%XoXz.d.`.",
"d +.1.>.N.L.8.-XO.,.1.*.G tXxXnXnXnXcXtXtXtXtXtXtXtXtXtXtXtXtXtXtXtXtXtXtXtXtXtXtXtXtXtXtXtXtXtXtXtXtXtXnXH 9.;XdX~.fX&X#X XdX$X",
"l. .u A.t.o.s E.c.,.L.@ 5 tXnXnXnXtXiXtXnXtXtXtXtXtXtXtXtXtXtXtXtXtXtXtXtXtXtXtXtXtXtXtXtXtXtXtXtXtXtXtXnX%   `.V. X$Xm.^.3XB.h.",
"[ d >.|.>.=.!.~.F./.g.    tXnXnXnXtXtXnXtXtXtXtXtXtXtXtXtXtXtXtXtXtXtXtXtXtXtXtXtXtXtXtXtXtXtXtXtXtXnXtXnX  . m..X:XE.i.| (.@X'.",
"a &.!.@X3.3.d J.M.>.h G * tXnXnXtXtXnXtXtXtXtXtXtXtXtXtXtXtXtXtXtXtXtXtXtXtXtXtXtXtXtXtXtXZXtXtXtXtXtXtXnX^ D 6.I.D.C.P.k.N.S.a.",
"e.e.1.1.+.9 m Z B   9.G rXnXnXnXtXtXiXtXtXtXtXtXtXtXtXtXtXtXtXtXtXtXtXtXtXtXtXtXtXlXZXtXtXtXtXtXxXtXtXcXMXnXK r.e * & B S R.D.] ",
"M.6.` z S.: Z C C 0 O.G tXnXnXbXtXnXtXnXtXtXtXtXtXtXtXtXtXtXtXtXtXtXtXtXCXZXZXxXtXtXtXtXtXtXvXvXtXtXnXnXMXnX^ #.O M C C o ;.U.A.",
"F.d.%.-.H.  C C C n = G tXnXnXtXtXtXtXtXtXtXtXtXtXtXtXtXtXtXtXtXtXtXtXtXtXxXvXvXnXnXnXiXtXtXtXtXnXnXCXmXnXvX^ @   Z Z ZX  o n.P.",
"x H.P. .a   C VXC m   K 5 rXtXtXtXtXtXtXtXtXtXtXtXtXtXlXtXtXtXtXtXtXtXtXtXtXtXtXtXtXtXxXcXnXnXnXnXnXnXnXnX  ^   = Z A ZX.   %X:X",
"5.6.k ,.r   C G C 6 + G G G G A Z G T T K n # +           # > > & * * 4 5 m M M D D M 1 & ; 9 A G G A m   ^ ^   + C G F * I.3XsX",
"E.k z | s O : * 6   ,   G G F ^ I ^ L G G G G G G S G G G G F G H ^ ^ ^ ^ ^ ^ ^ ~ ^ ^ ^ ^ ^ ^ ^ ^ ^ ^ U G G m # t C C C O %X2X0X",
"{ f y.2. .6.-.  C K F G G G ^ G ^ ^ ^ ^ lXZXNXlXzXlXcXzXNXVXZXZXCXL Y H F F G G G G G G G G G G T ^ ^ ^ G G G A M A # o.B.P.o.N.",
"w.~.t r x *...0.@   9 G G G ^ I ^ ^ ^ ^ ^ ^ ^ ~ E E E ^ ~ / ^ ^ ^ ^ ^ ^ T lXZXZX^ ^ ^ ^ ^ ^ ^ ^ G ^ ^ ZXG G G 9     F.U.[.U.X.f.",
"g w.d.i &.$.H.8.8.O.  G / U E R ^ ^ ^ ^ ^ ^ ^ ^ ^ ^ ^ ^ ^ ^ ^ ^ ^ ^ ^ ^ ^ E R E ^ ^ ^ ^ ^ ^ ^ ^ U G U G G G G q I.@X$X$Xn.U.'.i.",
"_ a %.a <.&.p [ X.[ & G G H E ^ ~                                 .                         # A G G G G G G G M 3X$Xz.^.J.m.dX^.",
"( a [ *.r.( ( <...) G   G G   Z D   S G G     G A     ^ $   G ^     ^ 0 0 F ^ +   ^ ^ T ^ ^ ^ ^ E ^     G G   . ).3Xc.C.k.^.~.#X",
"` 4.F.' f *.(.P.u 7.^ G     ^ 1 5XuXhX$ G 2 3 . S 4 $ ^ 4 2 F ^ 2 2 Y   4 H E 4 3 G 2 4 4 ^     5XJ 5 ^ q   G   A.a.|.x.h.{.} } ",
"r h *XK.z =   K L E Y O G 5   5XZXhXhX    3 3   A 2 O Y 3 3 F ^ 3 2 G   2 G E 4 3 G 5 W >     hXjXuX1 G ^   G G G G A .   W.x.l ",
"i s [ >.^ E K G K ^ ^ G G ^ 5XhXkXZXhX  7X3 3   n w   G 3 3 D ^ 3 3 G   3 G E 3 4 G & I : hXhXhXqXBX5Xo ^   ^ ^ ^ ^ eXU G   '.'.",
"( v.4.i ^ K K G G G G G G ^ ! 5XZXhXhX9X  3 3   + lX  G 3 3 D ^ 3 , G   3 G E 4 3 G   0 & 9XhXhXhXhX5X$ ^ $ ^ ^ ^ ^ G ^ ^ F s.m.",
"| | H.[ % X       X     ^ ^   5X6XQ   J ; 2 3     ZX  G 3 3 D ^ 3 : G   3 G E 3 3 G   2 >   * hXuX5X. G ^   D m 2 D F D F & I.<X",
"x.x @.9.hX5XjX5X9X6XuX0 ^ , G         F E 3 3     ZX  Q 2 2 D ^ 3 * G   3 G ^ 3 3 G   3 - G   1 J   D T   6 5 hXkXjX6X. 5X  S.9.",
"( s y.q.# - <       . m ^   ^ K G G G ^ ^ 3 3     ZX  P 3 2 M ^ 3 * G   3 G ^ 3 2 G   3 # G G G G G ^ ^ . q   Q hXhX!     5 G.}.",
"8.i z. .L K G G F G L ^ ^ q ^ ^ L ^ ^ G G 2 3 .   ZX  D 3 3 m ^ 3 2 G   3 # ^ 3 2 G   3 . G ^ ^ ^ G ^ Z q C 6 6 9 6 6 6 9 C G.n.",
"6.j i.f.M K T ^ ^ ^ ^ H G E ^ ^ ^ E ^ ^ L 3 3 6 N 3 . H 2 4 q ^ 3 2 G , 3 & ^ 3 2 G   3   G ^ ^ G ^ ^   C M C C C C C C C X u +.",
"v.z v t V 9 C C C C C     ^   ^ ^ G G ^ ^   % F E ^ ^ ^ ^ ^ ^ ^ T U L K U ^ ^ G G ^ Y G F P ^ ^ K ^ D C C C C C C C C C C 2 j l ",
";.x ;.0.Z C 5 9 9 6 9 5 9 . T   ^ ^ ^ ^ ^ E ^ ^ E ^ ^ ^ ^ ^ ^ ^ ^ ^ ^ ^ ^ ^ Y G G ^ ^ ^ ~ ^ U E ^ ^ # n B C C C C C V q 9 2 B.] ",
"6.{ a 7.5 o 6 6 5 5 5 5 4 4 3 4 5 5 4 3 > - - & % # # O . . . .                                                              .q.",
"h e h ]   6 C Z Z C C B C C Z m m m C C C C m 6 + O + # & * > 2 4 6 n m C C C C C C C C C C C C C C C C C C q 6 6 5 5 q 6 o R.Q.",
"r d 8.a . 9 . C Z . o . + $ 4 0 B & C C C 6 C 6 6XyXhXuX5XhXhXhXhXhXhXhXhXhXhXhXhX5XB C C C C C , V #       X O & C C 6 0   3X[.",
"g r.u @   5 3 C 9 5XjX8X1 hXCXuX6X6   C 6 C m 5 jXjXhXhXhXhXhXhXhXhXhXhXhXBXhXhXhX5X5 C 6 C C # V 5X  jXjX. jXjX. 9 C 5 3   {.3X",
"r s i X . + O C 9   5XjX! hXZX7XqX6   C C 6 6 4 jXjX8X5X5X5X5X6X8XyXhXhXhXhXyX5XjX5X5 C C 6 C C Z 7XuX9XjX  6X5X5 n C 6 : > aXa.",
"i { ..  > :   9 C 6   5X. 5XhXhX  6   n 6 6 6 - jXjXjXjXhXhXhXhXjXhXhXhXhXhXhXhXjX5X6 9 n C C C V 5X  jX5X5X! C 6 C C 6   2 z.>X",
"z a [   3 * #   Z C 7 6 6 6 6 4 6 n   5 6 6 6 4 5X5X5X5X5X5X5X5X6X6X6X5X5X5X5X5X5X5X5 9 6 6 0 C C C C B m n 6 6 C C 6   - 2 S.A.",
"w.L.a   3 *   3     B C C C Z Z C   5 6 6 C C C C C C C C C C C C C m 9 > % O .               6 9 9 B B C C q 6 6 + , & * 3 G.k ",
"#.$X;X  3 *   > o 3   3 & # # *   9 6 6 C C C C C C C C B q 6 9 C C C C C C C C C C C C C 6 C 6 #   > 5 6 2     3 3 * : * 3 l h.",
"#.5.z   3 * # : & >   3 * : * * I.6 6 0 6 C C C C C C C C C C C C C C C C C C C C 9 C 6 C C 6 C 9 6 9 * & - 4 * : 3 & > NX4 1 XX",
"` u k   3 * & * , - O 3 * * * * w.6 6 C 6 n Z C C 6 5 6 9 6 6 6 5 6 6 6 6 6 6 6 6 6 6 6 5 9 9 m m 6   * * * 3 & : 3 2 2 : 3 . ~.",
"h _ r.  3 * * * 2 : O > * * * * w.  6 5 C B n C C C Z Z C C C C C C C C C C C Z C C C C C C C m 5 9   * * * 3 & * 3 V 3 * 3   D.",
" ...{   3 * : * > * . : : * * * b.@X    5 5 6 5 9 9 6 6 6 6 6 6 9 6 5 5 6 6 n 6 6 6 6 6 9 6 5 5 0     * * * 3 * : 3 W 3 - 2   2X",
"x.M.x.  3 : > * # *   : * * * * y.W.e.D.9.8.l e = g y = v i [ *.X.` g y = y = = = X   o @ X t i.=X}.  * * * 3 * P 3 P 3 - 2   N.",
"h 6.H.  2 - - - . :   > * * * * ..b.=.;XA.x +.s.=.,.].#.!.2.( <.I..X4.=.M.1.*.#.L.<.#.u i.s.j. X>X{.. * * * 3 $ 8 3 3 3 * 3   m.",
"F.{ 8.. 3 *   8   NX  > * * *   &.[ >.L.J.*.%.(.^.m.c a.| d.( ( 2X:X$.6.&.H.{ ] [ Z.$X=X;.b.h.{.).m.  * * * 2 . & 2 I 3 * 2 @ p.",
"].,.>.  3 *   7   NX  2 # *   b.<.y.x.$Xe.P.s.A.S.5.L.<.4.Z.r.J.l.[ H.$X:X3.K.;.Z.!.e.!.F.m.m.z.B.2XZ.* * * 3   * o * 2 O 2 c.1.",
"U.e.s   3 -   * . W   3 u h z M.6.&.) _ H.E.t.| 2.` =X2X|.:XS.c S.,.f >.e.S.~.A.r.w.a o.w.T.x.R.#X:Xo.  &   3   *   * O   * +.,.",
"g _ u . 3 *   ,   : O 3 p *./...O.w.[ 7.t.z.] q.Q.W.a =.` >.c.'.$.;.=X1.u d.N.F.y.$.` ;.[.|.4.<Xm.p.i.l.n.@X2   :   *       f.S.",
"( a r r 3 *   2   : & # w.(.z.d.x.} ] <.P.A.` a -Xg.] ] J.X.v.G.I.| x s.R.8.9.z.>Xx $X~.n.Q.:X{.%X].`.A.j.).% . 3   :       _.d.",
") 7.8.)   *   3 O 3 *   U.;.=.d.^.).c.f X.A.] e.e.XX+Xg.,.6.k S.e.P.v.A.[.Q.D.;.Z.J.4XoXf.g.R.9.B.-.p.{.,.z c 2 3 : 4 *   :X]._.",
",X6.) O.g     .     @ b z *.+.o.!.e.O.f ( L.6.[ 3.L.' 8.%.2.W.g t.j C.0.*.`.(._.m.5.#.R.W...L.l.3.3.h.`.>XR...J.-.i.I..Xc } g.#X",
"_ i r a ' } ( [ _ u ( a a .._ J._ ( ..R.4. .<.O._.K.d.B.@X<.H.k F.C.}.K.k '.Q.T.A.s. Xp.} { t.O.5.m.p.i } m.U.j.l.n.s.$XQ.P.1.B.",
"x i ' m.!.B.s >.a ( q.>.` s b h ( &.a k. Xe.!.4.S.;.a.g.' 1.0.} i.;.-.'.-.6.2.o.p.[.G.{.wXA.( oX}.$X>Xz o.m.m.| 1.c.z.n.} A.3.#.",
"e c.Y.f z.%.u j.d u ;.g.l.-.@.g s ( 8..Xd.t.>XD.d.,.[ z.| &.!.i.D.=X;X^.G.+.f.h.).=XaXpX&X%XU.h.).H.>X%Xf.] @XG.' ,.-.a.,.a.@.,.",
"` #.x $.[ d.,.:...( <.:.r.#.k :.*.( ` F.p ..A.i.@.>.b.Z.@XN.c.R.,.d.x :.N.<X,.a.C.I.>XXXo.' R.'.}.I.s.b.%.p.!.m.Q.,.P.P.I. Xg.$X"
};
