/* XPM */
static char *grassbg_overlay_resized[] = {
/* columns rows colors chars-per-pixel */
"64 64 256 2 ",
"   c #085B04",
".  c #0D500A",
"X  c #0A6705",
"o  c #136303",
"O  c #156C06",
"+  c #0E7602",
"@  c #147402",
"#  c #1A7401",
"$  c #1B7B02",
"%  c #157608",
"&  c #1B750B",
"*  c #1B7B0B",
"=  c #0D6413",
"-  c #186A13",
";  c #1C7914",
":  c #246D0B",
">  c #237C03",
",  c #267A0A",
"<  c #337C0D",
"1  c #267717",
"2  c #257D12",
"3  c #257B1A",
"4  c #35791A",
"5  c #2D7823",
"6  c #5C770F",
"7  c #6D6015",
"8  c #BE1E18",
"9  c #9C3618",
"0  c #AF2718",
"q  c #B8281A",
"w  c #A73619",
"e  c #BA311C",
"r  c #A63E20",
"t  c #CD0E16",
"y  c #CF0F18",
"u  c #D00F18",
"i  c #CF1118",
"p  c #C61B18",
"a  c #D2101A",
"s  c #C7221E",
"d  c #934E17",
"f  c #A9451C",
"g  c #A2531C",
"h  c #934B24",
"j  c #9E5C20",
"k  c #957528",
"l  c #1C8302",
"z  c #1B8A06",
"x  c #1D830C",
"c  c #199106",
"v  c #1C8416",
"b  c #238403",
"n  c #2A8404",
"m  c #258B04",
"M  c #2C8B03",
"N  c #23830C",
"B  c #2C840D",
"V  c #238A0B",
"C  c #2C8C0B",
"Z  c #338D04",
"A  c #378708",
"S  c #338C0C",
"D  c #2B9203",
"F  c #2D930C",
"G  c #299808",
"H  c #349403",
"J  c #399603",
"K  c #349C04",
"L  c #3C9B04",
"P  c #34930C",
"I  c #3B940C",
"U  c #349A0C",
"Y  c #3C9B0C",
"T  c #248213",
"R  c #2B8413",
"E  c #258B14",
"W  c #2C8C13",
"Q  c #248319",
"!  c #2B841C",
"~  c #2D8C1B",
"^  c #378817",
"/  c #328C14",
"(  c #338B1B",
")  c #2D9314",
"_  c #2C9417",
"`  c #349314",
"'  c #3B9413",
"]  c #349C14",
"[  c #3C9C14",
"{  c #35931B",
"}  c #3B941B",
"|  c #349A1C",
" . c #3D9C1B",
".. c #39A408",
"X. c #33A615",
"o. c #3CA314",
"O. c #38A517",
"+. c #3CA31A",
"@. c #2A8724",
"#. c #348C23",
"$. c #3C8C24",
"%. c #358929",
"&. c #2C9524",
"*. c #359424",
"=. c #3C9424",
"-. c #3B9C23",
";. c #3B932A",
":. c #389A28",
">. c #369033",
",. c #3B9733",
"<. c #3BA527",
"1. c #3EAD2C",
"2. c #449707",
"3. c #449B0C",
"4. c #4A8E13",
"5. c #439C14",
"6. c #489A16",
"7. c #42941C",
"8. c #439B1B",
"9. c #67811E",
"0. c #43A40C",
"q. c #48A808",
"w. c #53AB0A",
"e. c #4BB408",
"r. c #57B50B",
"t. c #44A315",
"y. c #4BA514",
"u. c #43AC13",
"i. c #4CAC13",
"p. c #44A31C",
"a. c #4CA41C",
"s. c #44AB1C",
"d. c #4BAB1C",
"f. c #53AC13",
"g. c #55A519",
"h. c #54AD1A",
"j. c #5AAB1C",
"k. c #4BB214",
"l. c #4CB31B",
"z. c #57B515",
"x. c #5BBB14",
"c. c #53B21D",
"v. c #5BB41C",
"b. c #5CBB1D",
"n. c #65B312",
"m. c #65B919",
"M. c #428927",
"N. c #439523",
"B. c #449C23",
"V. c #4B9C25",
"C. c #43952B",
"Z. c #479929",
"A. c #4B9B2B",
"S. c #569C23",
"D. c #438C3A",
"F. c #449B33",
"G. c #489935",
"H. c #549B37",
"J. c #71952C",
"K. c #44A323",
"L. c #4BA423",
"P. c #45AA23",
"I. c #4BAB23",
"U. c #44A32B",
"Y. c #4CA42B",
"T. c #45A92C",
"R. c #4CAB2C",
"E. c #53A423",
"W. c #5BA626",
"Q. c #53AC24",
"!. c #5AAC23",
"~. c #52A42C",
"^. c #54AC2B",
"/. c #5BAC2C",
"(. c #4CB427",
"). c #54B424",
"_. c #5BB324",
"`. c #5DBA24",
"'. c #54B32C",
"]. c #5CB42C",
"[. c #55BA28",
"{. c #5CBA2B",
"}. c #49A636",
"|. c #4CA434",
" X c #52A333",
".X c #53AB33",
"XX c #5CAC34",
"oX c #58A338",
"OX c #54AC3B",
"+X c #5CAD3C",
"@X c #4EB232",
"#X c #53B234",
"$X c #5BB433",
"%X c #5CBB33",
"&X c #55B33B",
"*X c #5CB43B",
"=X c #59BA39",
"-X c #63AA27",
";X c #62B522",
":X c #6BB727",
">X c #63BB24",
",X c #62B42C",
"<X c #64BB2B",
"1X c #6BBC2C",
"2X c #72BA2B",
"3X c #63AE36",
"4X c #63B434",
"5X c #64BB34",
"6X c #6BBC34",
"7X c #63B43B",
"8X c #6AB538",
"9X c #63BB3B",
"0X c #6CBD3C",
"qX c #74B939",
"wX c #58C31D",
"eX c #68C51B",
"rX c #76C919",
"tX c #5BC329",
"yX c #5DC334",
"uX c #69C528",
"iX c #74C728",
"pX c #7DD22A",
"aX c #66C536",
"sX c #6BC234",
"dX c #6BC33C",
"fX c #76C83A",
"gX c #7AD438",
"hX c #4A9943",
"jX c #5AAA44",
"kX c #54A949",
"lX c #5BB745",
"zX c #64AA46",
"xX c #66B846",
"cX c #6BBD44",
"vX c #73BD45",
"bX c #65B854",
"nX c #75BC54",
"mX c #6BC447",
"MX c #74CB44",
"NX c #77C848",
"BX c #7AD248",
"VX c #73C452",
"CX c #71CB52",
"ZX c #78C855",
"AX c #79C963",
"SX c #928C26",
"DX c #959138",
"FX c #84D237",
"GX c #87BD51",
"HX c #83C549",
"JX c #86D746",
"KX c #84C95A",
"LX c #87D757",
"PX c #83E049",
"IX c #88D768",
"UX c #8DD56F",
/* pixels */
"e.#X-.s.}.u.I.2 W @XlXl ;.[.U #X#Xq.,.` 0.).b.P E { yX<...L.8.@X%X>XIXKX2XLXcXQ.XX4Xt.` xX$X4XLXiXm.AXmX0X4XoXjX[ Y t.x.1X4.t.Z ",
"t.F ).H K.K c.:.| D W Y C.OXR '.H [.[.T H '.+.| B.[.#X#XA.-.; <...'.iXPX6Xm.qXNX,X;X^.6XbXBXNX6XuXgXVXJX_.p.L.$.P Y Q <XJ 1XCXP ",
"` s.,.`.(.d.l.U  .$ :.R.J a.|.5. . .z./ ~  ./ s.^.p.K.MX^.M V I.e.P.q.vX7XfXIXfXJXFXnXS.nXrXJXJX,X{.mXfX<XIX+X, M.Q.d.q.eX;XNX5.",
"+.%XM F i._ <.N #.W b o.H V.! R 2 c.p.d.,.} K.i.n S P.<.tXsX!.MX#Xh.fXsX,XmXzXdX;Xf.>XmXLXLX-XsXiX6XuX4X8Xj.LX6XcX7X6.J J N._.;X",
"@.d.] | E F * o.b T.b 2 2 U.y.i.L.v.R Q.OX].t.V./.6XP V F.lX( m lXY.~.j.].8X:XM.Q.VXmXiXfXBX$Xk.BX5XkXMXb.VX,X8Xj.LXzXg.=X{.q.g.",
"n OX@X; l N =X..k.s.] C #.` { ; P xX'  .#X{.).mXE.T.U *X^.&X%X@Xl.OXjX5X+XNXFXGX`.c.lX>X5XeX=XT.aXP.o.{.f.i.!.cXfXuX6XMXm.3.aXn.",
"M C ` +.K T.! & B p.) D =.V.} B./ ~ i.W 8.t.U ^.).<.tXaX>XdXb.T.` '.[ d.uXv.j.HXZXNX%XY.sX`.`.'.=XB.C '.q.2 4XLXf.;X2X/.v.$.<X;X",
"! -. .` K P L [ ! n ~ D 8.Z } [.D N K o.T.I.b bX_._.'...&.d.'.P.+XiXL.` p._ L.uXiX9XIXuXgX_.^.iXVX6./ ].{.G.HXNX<X6XfXiXpX5X<XvX",
"q.S Q.H P v P e.w.S !.I -.~ h S.X.&XmX..).cXN.4X$XlXdXuXR.Y.t.t.eX).l.P.*Xi.].^.h.zXPX^.T.k.H J.SXNX`.%X%Xe.n.:X3XBX`.[.c.b.P |.",
"/ - #.& * @.B.N 3.Q.'.2 0 a a a 0 [.aX} }.Y.;Xe.`.d.P.B.z.v.*XL M >.d.'.mXy.B.OX*XgXz.L l.aXa a t u LXgX].{ x.MXHXH.4._.L.P |.f.",
"` Y.^.K.) * B.*.& p.~ f a a a a i k _.>X#X|.@XL y.` Z =.MXd.F.[ <.jX$X].mXU q.L.%XuXaX_.k.a a a t t u MX).#XR.uXfX{.BXr._.!.8.5.",
"! S 2 { u.K W | Q W d i i a a a a a e M : &XU /.t.; 9X=XbX} -.xXu.OXXX].+.~ }.uXcXY :.dXa a a y t t a u c..X5.4 ^ FXUXMXeXp.6.<X",
"* P Y ` b.T.! kXL w a a a y t t u a a d K.T.f.x.L.R.R.K.+.=XmX).| jXV.V.@XT.*Xy.R.Q.x a a a y i t t u u a H I.lXLXoXIXpXiX5XLXdX",
"u.M = B.,.H $ `.9.a a a a a u t i i a a g u.P.| ~ =XF ] ` U.R.l.(.{ $.^./ | l.5Xx.mXy y a a a i t u a t y u xX<Xn.sXsXh.$XVXv.w.",
"V & P aX` ! .XOXa u a a a a y y a a a a y 9 N $ 2 =.dXY } { -.o.tX(.J } bXI.d.C.).y y y a i t t a a a t y u ZXg.7XxX;X3.Z *XuX5X",
"* E F.uX} ( & Y.e a a a a a a u i i a a a a W.=.t.B.aXaXaX0. .I.! :.}.S g.!.].}.y u a y a t t t a a a t a a &X+.E.E.m.Q.r.v.Z.[ ",
"} =.[ [ P B.I.V O a u a a a a u u u i t i u u f c k.c.,XBXyXQ +.I.Y ^.Y { AXOXt i t i t u t u t i a a a a k OX*.| t.!.j.i.;XS.C ",
"l.+.b 1 Z.,Xp...R 3.a a a a t u a u a a u i a u j z.XXdX[.h.m { (.%XcXfXvXNXa u t u t t u t u i t a u t s p.V o.y.K 7XUX~.5.^.K.",
"C.8.R / s.<.m G dX^ ; a a u u u a a a a a a a a a k fXiX!.u.).(.^.a./.MX$Xy a u a u a i u a a i t t t s IXbX .o.!.5XmXL.b.n.y.Q.",
"2 L.(.M @ X = E $.I.xX(.a a u a a a a a u a u a a t e c.o.gXs.).uX/.~ L.y y a u u a a u a u a u u u 6 o.@X7X~...,.A.$X' q.eXNX7X",
"..p.> '   X   c @ ] [ Z - y a a u a u a a i a a a a a j 4Xg.B S e.` 9Xu i t t a a a a a u i u u u DX6.jXKX3.;.' lXY b ^.E.9XKXKX",
"<X> 1 S x * ) c # ~ E $.K.<.a a u a a a i a u a u a a a w / xXA.T.CXa a a t a a a a i a u i a i f -XZXQ.>XfX0X$XZ c.L d.v.fXBXpX",
"C * <.~ m o.^ - 2 N { Q.L N K.u a i u u u a u a a a a i a DX} hXp.a a a t u u u t u a t u u a p {.zXLX#X[.;XzX%XY.vXS.H v.!.Z x.",
"*..Xo . R W F { X = B { = ^ ! T u t a u a a u a a a a a a a d 6Xu a i a t i u t a u a u u a f ;.u.h.6X0XCX9XLX*XNXKXG./.1X'.) 0.",
"- ;.6.o E Y K.~ @.K G !  .U.#.6.3 t t t a a a a a a t u a a a a u i i t a a a t u a a y y j [ +.jXv.9XcXZXm.q.*X XiX6XdXy.^.<X6.",
"N % E * ) E @ V F N 3 3 N c _ @.` ..t y y y a a u u u y a a a a a a u a u u a t a a t y e $X@XjXa.} %XMXH.BXbXi.ZXsXy.=Xd.g.LXXX",
"x O 2 ) -.V * ] c z ; 1 *.x =.4XW ] :.i y t i y t t a y a a a a u a u a a a a a a a t 7 G 1.kX.X! J H <XVXdX^.&X3XVXp.m.r.XX XiX",
"b  .A.b & ) *X_.+ 1.P./ H C kX8.T + @X(.y t t i i t a t a a a a a t a u a a a a a a 6 =XK G ` I.'.s.{.h.7XVXI.p.8.5.8Xe.f.4XA J ",
"X ; hXY.2 & ;   A L B 1 8.+.) z XX7X.XI <.t a i t u t t t a a a a a a a a a a a t d x 1.].I.E |.T.>.%._.;X$XuXe.M.d.M A.N.'.i.< ",
"O # 2 ` @ # T - ' > H.H., G G 2 :.2 D ~ U V.i i t a t t t a a a a a i u a a a a h +.@XCXI.P a.uXQ..X8.E.L.4Xi..XQ.cXv.B F.0X,X,X",
"l d.-.% + ~ s.N m -.& 5 G.O.o.B.v l | G ] T.$Xi y a a a a a a a a a a a a a a e $XG aXN.M  .ZXuXw.! M _ ;  .I.c.uX' q.P } J 3.g.",
"S C K.b F ; C OX` l , R P D z ] ` [ #.&...-.' X a i t a a i a a a a a a a a g ( lXNX_.$XH.{ ] C V.F.b V :.O e.I.q.ZXh.uX/.XXW.BX",
"d.* Y %.2 S ^ 7.g.R =.R > F.V.$ K.< F R.|.'.:Xa a u u u u u u u a a a a a a a w -.VX=.@.<.K.P.v W B.lX5X} C F K U.&Xr.6X9Xq.$X*.",
"x $ <.&.o Z ' 2 Q 2 : F.C.q.wX~.F.zX#X..s.@.a y a a u u u u u u a a a a a a a i w i.5.%X# N I. .3.).I.I.` OX .D .X~ 2 < 8.KXvX8X",
"~ o y.G ;.K &.A O Q ' /.#XuXuX<.U.H 1.K &.a y y u u u u u u a a a a a a a a a y t d s.cX].B.t.^ oXI.O.X.C aXxXG.^.MXy.B # B.F.f.",
" .: 4.q.' +.{ 4 k. .d.| M.lXP.o.p.I ' ;.i i a a a u u a u u a u a a a a a a i y u t 2.Y.mXOXL.!.oXlXT.lXmX0X$X~.jXjXcXcXR.p.X U ",
"i.1 5 . ) ..b . v L x.3.& C t.n U.N.C.t y y a a a u a u u u u a a a a a a a y y u t u h %X^ ;XsXR.CX4X5X8.8._.r.sX$XVXm.a.F.: < ",
"^ 1 ^ %.m E &.l [ ,.} 1XH ` L.U @.F u u y y y u a u u u u u u u y a a a a a t y u u u u p dXeXdX[.5.oXS.L c.sXmXdX3.2.m.dX$Xv.n ",
" .C # O.H ; 2 O $.A.[.'.{.5.o.; R a u u y t y a u a u u u u t t y t t a t y a t t t u t i -Xz.MXr.OXbX=.).yX.XH...Z 9XG.} K D &.",
"1 . 1 m o N l 7.1 Y.7./ ~ s.0.K.y a a y y y y a a u u u u u 7 8.y a i t y y y y u t u t t t g ' H.NXE.'.MX).{.N.m fXIXV.6.6._.4X",
"  % %.# > b O &.I XX. 3 { R C t y u i u u y u y i u y a u q ^ ` G t t t a u a u y y a a u a u d :X{.^.AX^ M 0.ZXjXp.zXZ.!.KXVXiX",
"  :.  X T ,./ P ( B J @. .& u a u a a y a y t y y y y u g } 3 B L b i t u a y u a a y y t a u u DXy././.`.7X3.d.Q.' W ,XiXuX8XnX",
"  $ O } <.y.S U c.n T # t.u u y y a a y y y t y y y y 7 xXB.W *Xj.ZXA t u u u a y y y a a a t t t DX8X} _.r.j.yX5X X` XXW.w.HXy.",
"& C F C.G 2 d.0..Xs.:.z.t t t u u u u y a y t y y u f U d.9X} ; , NXN.W a a a a y t a y a a a i a a r 3.~.3.t.w.7X|.^ XX6.z.a.cX",
"3 @ M 3 z O K.N o W # u t u a a a u u u y a a a t w H.+.| 6X^.x.' 5X(.@XE i a a a a y a a y t t u a t f OX_.g.<XVX[.1X!.7.A.A.Z.",
"=.@X@ Z F +.~ @.2 #.u u a a a a a a u t y a y y t ^ bX#X[ > C.p.A.>Xe.i.F ] u u a y t y a t t t a a a t :XrX3X2.B.3.p.fXm.a.4X2 ",
"P aXlXR b _ +.U o.t a u u a t t a t u u t t y q #.6.~.%.z.U +.uXfX0XiX).=.] H u a a a a t a a t t t t u t k KX-XI.*XC BXqX0X2.r.",
"L ..1 ;. .m  .c 8 t t u a a t t t t u u u u q 3XH.E b NXmX] :.zX%XT.U _.CXhXP t.a a a u i a t a t t u t u t ..H.L.%./.q.].6.JX0X",
"b X , F., # ~ + i i u u u u a u y a y y y 6 V.H.L 5 kX.X!.[ 6.! } =..XaX$X1XZ. X| i u u a t t a t a a u u a Q.4 ^ y.6XL._.eXgX^.",
"; N -.k.n 3 * * q a u a i u u u a y y a 9.@.^.N.C |._ O X *.xXp.Y.G.3 a.' h.<XOXR.y.y u a a u u a a t t u t h.-Xn.6.g.y.w.L S.S.",
"G V C m ! , O @ 3 w t t a a u a y u i j r.uXy.$.P ( U.D.R } 8.B E R.V ` P H.L. XX.G.xXt t a t a u u u a t $XE.fXp.H <X6X2.v.j.FX",
"u.k.e.2 F 0.D [.rX..i a i a a a y t q Y.&.@.o.R ( -.(.[ }.N n E F D V }.L cX^ A.| ~ { p.a u t u u a u u Z 2.m.eXH R.4X4.W./.6.x.",
"; o.K.X | B.u.tXH.x | i u u u a t 8 ! &Xp.2 P p.2 ' <XI }.| m :.^.5X8.! l.[ W U @X` P X 2.a u t a a u q.N.j.q.z v./.-X2X2X-X4.-X",
"}.A #.! & * % ] D b A y.d u t a w m ~ ^.L.^ R *XXXj.< 7.A 8.l $ BXxXK  .R P.C m M C.uXzX/ L.a t u a UXZXz.dX# M ,XqXFXn.FXrX4.^ ",
"<X} ' D I p.O @ l | L.t.+.] J.S.] -.u.aX:.Q.t.N.U....X| | =.*.I.t.b U.aXxX} ~.@.M. X;.T.Z.j.g.y.g BX^.4 S.D.^ V.F mXfXw.iXq.y.U ",
"^.#.# R.( ! _.t.o.Z.l.b o & 1 c.O.E E v p.{.;.W } l jXgX6XvXA.4 Z.[ * ` :.A.^.B.:.:.@ Z ;.[.y._.iX9XU A 4 M.w.A 7.y.m.8XXX' P ' ",
"- x X $ x F & Z z E s.<.@ S %Xm G =.V X.;.y.M @.%X'.# ! n ) p.,X3.#.zX] X 8.c.F.+.Y m ( sX5X| NXg.' 3. .f.1Xu.qXr.g.m.j. XY q.A.",
"z @   = _ L.;.R F $ ` M -.*Xa.p.y.2.M ] Q.Y.b % kX..M M I.P p.H.E.B 2 6._.@.$.f.nX; 6XoXf._.vX+XfX;X:XZ.e.,Xm.} q.3X:XrXeXh.`.8.",
"V O.v E T P ~ p.| l.# $ ~.( R =.4X,Xp.* F Z.D =.} 0XyX0.' o.> A.N.Q.s.N.uX{.V.4 M.a.AXrXq.0._.$.n.( 7.3X' 1 `.).A -X2Xm.!.xX<X;X",
"mX+.G G - = ) $.` l + 5 2 E U L G.-.H x x I.+.m } R.B ! 2 *.).- C.: m.*./ :X7X;Xj.o.F !.[.F I.t.} =.f.:XqX_.K V.P 3.!.zX3 Z y.iX",
"v o   $ n J $ V v X x @ @ G Q L.* v G _.5.D [ K ;XY.8.z.uX| K., A.x.6X|.* XX{.c.6.6.4X7.A V >.H ..a.7.# A j.Y.e.t.y.6.sX,XE.3.b.",
"* o B h. Xc.# _ * l _ ( n # @.; z E # r.5X;.|.6.V.#.Y y.n [ #.A 3.^ W ,X` t.=.J ^ qXH.-XGXV.c eX0X5XnX4 H j.h.S 5.p.i.f.Z Z.} L ",
". K.(.* a.B % ..% O ( 0.t./ P = @ z ! 7Xp.F.bXA.7.7.B t.S C .X2.A.zXlXXXH.U q.w.2X+XHXHXpXfX/.f.-XB.cX6Xq.Z uX Xb ' / 7.' 5.P } ",
"n K 2 Y n 6.[ _ G * [ _  .Y , / W z l hX+ G B.2.J ` d.N.uXc.K._.'  ., ` x.VXI 7.m.Y.VX0XJ M `.].8X-X6.s.2 7. Xg.,X' Q.Q.E.6X0.dX"
};
