/* XPM */
static char *grass_resized[] = {
/* columns rows colors chars-per-pixel */
"64 64 256 2 ",
"   c #085B02",
".  c #145B0A",
"X  c #0D4A07",
"o  c #0C6604",
"O  c #0B6907",
"+  c #136D03",
"@  c #146C09",
"#  c #17680A",
"$  c #0D7303",
"%  c #0C7904",
"&  c #147403",
"*  c #157B03",
"=  c #1A7C04",
"-  c #1C740A",
";  c #1C7B0B",
":  c #187708",
">  c #1C6711",
",  c #1C7612",
"<  c #237D0D",
"1  c #25780B",
"2  c #276C13",
"3  c #247C13",
"4  c #2B7D14",
"5  c #277617",
"6  c #337B1A",
"7  c #2E6E11",
"8  c #327C20",
"9  c #1B8404",
"0  c #1C8B03",
"q  c #1D840B",
"w  c #188707",
"e  c #1C9404",
"r  c #1E8511",
"t  c #218405",
"y  c #238C04",
"u  c #2B8C05",
"i  c #23830C",
"p  c #2B850C",
"a  c #248B0C",
"s  c #2B8C0C",
"d  c #2A8507",
"f  c #338C0C",
"g  c #35870B",
"h  c #249204",
"j  c #2B9305",
"k  c #25930B",
"l  c #2C930C",
"z  c #2C9A0C",
"x  c #289908",
"c  c #349A04",
"v  c #33940C",
"b  c #339A0C",
"n  c #3B9B0C",
"m  c #379508",
"M  c #248312",
"N  c #2B8413",
"B  c #248B12",
"V  c #2C8C13",
"C  c #2C841B",
"Z  c #2C8C1A",
"A  c #25851A",
"S  c #338C14",
"D  c #398C13",
"F  c #33841B",
"G  c #338C1B",
"H  c #3B8D1B",
"J  c #368416",
"K  c #2C9312",
"L  c #2D9B12",
"P  c #2A9416",
"I  c #349314",
"U  c #3B9414",
"Y  c #349B13",
"T  c #3B9C14",
"R  c #34931B",
"E  c #3B951C",
"W  c #349A1A",
"Q  c #3C9B1C",
"!  c #2CA209",
"~  c #36A10B",
"^  c #3CA30C",
"/  c #3DA709",
"(  c #35A213",
")  c #3CA314",
"_  c #3DA21B",
"`  c #3AA719",
"'  c #3CB00B",
"]  c #2B8A21",
"[  c #3C8D23",
"{  c #378924",
"}  c #359422",
"|  c #3C9323",
" . c #3C9B22",
".. c #399927",
"X. c #3C8E31",
"o. c #3DA325",
"O. c #439D0D",
"+. c #469A0D",
"@. c #478B19",
"#. c #419515",
"$. c #439D14",
"%. c #42941C",
"&. c #439C1C",
"*. c #4A9B19",
"=. c #529C1D",
"-. c #448A0C",
";. c #45AA0C",
":. c #4BAC0C",
">. c #46A50A",
",. c #53A80C",
"<. c #4DB40D",
"1. c #48B406",
"2. c #55B60C",
"3. c #43A414",
"4. c #4AA414",
"5. c #44AB14",
"6. c #4CAC14",
"7. c #43A31B",
"8. c #4AA41C",
"9. c #44AB1C",
"0. c #4CAB1C",
"q. c #54AD14",
"w. c #52AC1C",
"e. c #56A719",
"r. c #4DB214",
"t. c #4DB21B",
"y. c #45B216",
"u. c #54B413",
"i. c #55B31C",
"p. c #5BB51C",
"a. c #54B91A",
"s. c #5BB91D",
"d. c #58B914",
"f. c #64BA19",
"g. c #63A81C",
"h. c #438B27",
"j. c #439424",
"k. c #439C23",
"l. c #4A9D23",
"z. c #43942C",
"x. c #439C2C",
"c. c #4C9D2B",
"v. c #4A9529",
"b. c #4B9D33",
"n. c #4A9836",
"m. c #549C3A",
"M. c #52952C",
"N. c #6B9E36",
"B. c #44A324",
"V. c #4BA424",
"C. c #44AA23",
"Z. c #4CAC24",
"A. c #45A32B",
"S. c #4BA32C",
"D. c #4DAB2B",
"F. c #46AA2B",
"G. c #53A523",
"H. c #53AC23",
"J. c #5AAD24",
"K. c #52A52C",
"L. c #53AC2C",
"P. c #5BAC2B",
"I. c #5BA528",
"U. c #4DB223",
"Y. c #4AB227",
"T. c #53B324",
"R. c #5BB424",
"E. c #56BA22",
"W. c #5BBA24",
"Q. c #55B32C",
"!. c #5BB42B",
"~. c #5DBB2B",
"^. c #54B92B",
"/. c #4CA433",
"(. c #4AA635",
"). c #53A432",
"_. c #54AC34",
"`. c #5AAC33",
"'. c #54A43A",
"]. c #5CAC3A",
"[. c #58A738",
"{. c #55B233",
"}. c #5CB433",
"|. c #5CBA32",
" X c #5CB33B",
".X c #5EBA3B",
"XX c #56B53A",
"oX c #61AA2A",
"OX c #62B624",
"+X c #62BB25",
"@X c #63B52B",
"#X c #64BC2C",
"$X c #69BC2B",
"%X c #69B527",
"&X c #64AD39",
"*X c #62B435",
"=X c #63BB34",
"-X c #6ABC33",
";X c #63B53A",
":X c #63BB3B",
">X c #6ABC3B",
",X c #6AB538",
"<X c #73BD39",
"1X c #73B92C",
"2X c #5AC115",
"3X c #68C31B",
"4X c #77CA1B",
"5X c #5EC326",
"6X c #6CC22C",
"7X c #67C427",
"8X c #74C72A",
"9X c #6CC334",
"0X c #64C13A",
"qX c #6CC33C",
"wX c #66C534",
"eX c #72C434",
"rX c #73C33B",
"tX c #77CA3A",
"yX c #79D236",
"uX c #559A43",
"iX c #5AAC44",
"pX c #5CB343",
"aX c #5CB644",
"sX c #63B343",
"dX c #64BC44",
"fX c #6BBC43",
"gX c #6BBC49",
"hX c #68B648",
"jX c #74BC47",
"kX c #69B752",
"lX c #75BE56",
"zX c #64AA4A",
"xX c #639D45",
"cX c #6CC343",
"vX c #69C348",
"bX c #73C244",
"nX c #74CA44",
"mX c #7BCA44",
"MX c #74C34B",
"NX c #7BC54C",
"BX c #76CA4B",
"VX c #7ACA4B",
"CX c #7BC642",
"ZX c #79C656",
"AX c #77CE4C",
"SX c #83D336",
"DX c #85D12E",
"FX c #8ABE57",
"GX c #83CB47",
"HX c #84CC54",
"JX c #83CD5B",
"KX c #89D458",
"LX c #8AD64E",
"PX c #8AD666",
"IX c #91D36B",
"UX c #8FE046",
/* pixels */
"<.!.Q 7.D.;.D.q P (..Xt } {.z XX`./ B.K / !.E.Y M W ~.o./ F.W _.~.5XPXHX=XHX-XH.`.!.7.K :X`.>XLX8Xs.ZXBX:X.X'.[.T +.7.f.OXn >.f ",
"~ l Q.v k.c ^.j.E e } n %.`.F T.b ^._.4 Y R.T E x.^.U.^.x.E q _ ;.r.8XLX<X$XqXmX,XOXP.fXMXmXMX=X9XtXZXLXOX4.K.G b U i p.n $XbXE ",
"W B.B.^.U.0.9.~ W q R K.c V.m.b T T s.G C Q z 9.D.o.F.ZXH.j N K.;.5.:.jX@XtXPXmXSXSXfX=.lX8XyXLXW.W.BX8X-XJX X< [ P.7.q.3X!.CX$.",
"*.^.0 K <.R o.q H u q  .v B.{ C 3 i.Q 0.Q Q B.5.p f 4.7.~.wXw.BXaXH.mX<X@XgXiX<X!.i.$XjXLXJX!.8XtX:X6X~.}.OXHX<X:X,X3.c I %.@Xp.",
"F Z.( W a 0 N ( 0 7.s = ; k.4.0.D.p.f F.[.Q.&.c.I.=Xu B F.aXP a {.D.V.w.&X*X1XH K.qX>XyXtXGX}.<.GX#X_.BXOXbX;X@X%XKXsX4.!.f.^ q.",
"9 ].D., 3 Z {.) t.Z.l v I W H ; I oX#. . XW.p.vXI.Z.Y  XL.XX~.D.Z.`.pX|.&XGXDXFX@XE.aXs..X7X:XA.qX9.Q =XH.:.i.fX6X6X<XtXf.*.6Xp.",
"s s T Q c 9.N - i 8.Y y %.c.} 7.V I 5.P T ` T L.Q.( :X7XE.BXs.F.R R.Q q.9Xu.R.mXnXnX:X9.mXd.s.Q.XXB.B Q.3.p ].IXq.p.1XG.@XI -X*X",
"F L _ I n k ^ #.J i A c %.h E R.v q n T V.U.i hXW.!.Q./ L 7.`.C.].8XS.Z ) K B.6XeX:XIX7XtXE.0.rXMX4.s !.s.M.mXNX@X<XrX8XSX#Xf.jX",
"4.f Z.U z a T :.q.g J.b  .C _.S.x  XnX~ Q.gX%.;X X*XqXwXZ.D.3.7.3XT.Q.B. XG.{.t.w.,XLXt.A.r.I #Xf.cX+X.X~.<.f.%X*XNX$Xp.w.#Xv A.",
"V > U & , 4 } q n e.`.t a H. X0.Z E.0X} x.D.OX<.^.6.7.b.u.i.!.+.y } 0.t.cX;.l.[.pXyXa.v a.wXB.k.Z.PXUXmX|.l R.yXHX).T R.o.n K.H.",
"K L.G.k.R ; o.z.- 0.Z w.U.`.n N m.cXs.+X|.S.Z.n :.I v E NXZ.n.U o.iX|.{.cXT 3.V.*XwXwX~.<.|.cX_ _ ~.2.nXU.}.L.7X=XOXeXf.W.0.+.$.",
"G u 3 | ` ! V R M P %.l @  .V.j.`.#X2Xd 5 _.Q T._ , >X:XaX| ..0X9.(. X!.T P A.6X:X) W 0X{.V.T.B.| - R 9.T./.&.6 I LXIXmXf.6.&.@X",
"- K ~ I ~.Z.M ).b v _ S s y Z.c.E a Q U k.D.8.2XH./.V.V.( pXvXU.Q pX .k.{.F.pX4.T.L.B vXXXm.) qXAX0XPX'.l b ).|.KX[.KXyXeXqXJXrX",
"9.u # Q [ j < ~.B.&.0.7.z t s L XX3 3 T E.y.9.b a 0Xk Y R o.Q.1.U.Z v.Z.{ } y.~.d.fX.XvX^.,XZ.0.W.T.pXB.<.x.;X#Xf.6X<Xw.R.cX%X<.",
"a - h qXU A c. Xx.H.3.: ; q 3   3 k.|.` S L A ; 3 W cXb Y R j.` wXH.v E sXw.8.x.J.C.! a.x p .XL.9.l.T Z.l *XZXw.&XsXp.3.f =X7XR.",
": S x.wXT G , B.t.I , Z R (.d H - a u q F.7XI.| 7.l.-XqX7X) j.Z.A ..A.D u.L.;X/.} >XpXo.i.BXvX7.9.p.=X$X XT.XX_ G./.f.G.2.p.x.$.",
"E j.n T I &.H.y + * D S , W H #.I j.{ L.S.Y :.0.s y.u.,XGX0XM ` 0.T U.T I JX X|.3 XXvXZXZ.5XR.#X_.2XyXkXPX0X]...Y 3.g.P.:.OXc.u ",
"U.Q t 5 j.*XF.L 6 $.c   o 9.,X<.T.Q W.5.Y L.H.~ p.6.`.wXQ.t.h G Q.}.gXMXdXNX~..X) B.W u.3.t 0.:XD.q <.KXIX7.k m 7.c sXPX0.&.K.8.",
"E D.i Z V.` e L wXH ; M m { H l n ;XI j c `.MXu.s.6XVX3XH.U.t.T.H.Z.J.tX:X:.R.S.b.C.dXI 9.E K Z G ; x yXIXkX} 3.P.fXgX&.f.f.e.L.",
"i 7.H.f & $   B [ 0.;XH.h.{ L.R m q I q j W.7X#XL.&.OXq.) yXZ.w.3XP.N K.L.w.L.Z.:XcXvXh XXMXH Z.J.I.$.L Q.|.Z.^ ..7.*X$.^ 3XCX*X",
"4.3.< I       a + W ^ l # pX{.Z.j..XZ.D w.T a.Z.T Z.*X>X;X>.C v y.j *XAXS.7.Q..X_.0XQ.n 8.ZX;XW.GXmXv.`.mX#.} E sXE y K.4.>XJXHX",
"W.< - G q w b y - C B | 0.W (.| M z H H 0.D [.tXZ.J.I 0.U.H ;Xn./.AX( B.Y.2X/. X` ~.mXXX$.E.v.L.!.}.ZX`.6XCXqX_.f R.c e.+XrXVXSX",
"Z ; $.R a Y M 2 0 6 R D.v s B...x.) D.`.l J j.U.Q.:XfX#X#XnXE n.B.^.* B ! _ ] T d.6X` B ~ 0.&.7X!._.KXW.E.Q.dX!.B.jX=.m OXw.z 2.",
"} D.> X M K I P   # a R O 8 F r < 0.5X` < L.H E 9XlXc !.gX9.$.=X9.U.> Z qXR A.0X:.jXP K d.a.3X| 5.Z.-XcXZX.XHX:XHXNXm.H.#XL.v 4.",
"> } 7.o N Y B.Z C ~ P C W A.{ &.5 W z U U V.x.0.b V.P.k.E.y.) U.;X_.wXZ.( 5.9.Z.5 !.Z. .C.a.W 7.[.p.:XqXZXOX;.].'.3XqX<XV.0.<X#.",
"A & Z - I k $ a K * r 8 B w P F E x N T /.S.&.lX'.W a S.W ~ Y.T.8.W ~ U.@ 3 C.B.W Y._ ' t. X].{.6.E ;XnXK.mXfXT.ZXtX4.}.w.w.KX*X",
"0 # 9 S Q 0 q } k w 3 2 Z M |  XB ( k.p n F.W.S.lXl.U iX..v.S ` T q a Z  .] /.D...r o.k ! S.pX(.N U b s.MXgXL.{.;XcXB.f.2.L.K.4X",
"9 W S.9 5 K .Xt.$ ` 0.K Y Z _.&.M $ Z.T.b % ~ R _.c.XXiXQ.aXMX..Q m.k.R Q.vX, x.7XwXY.^.! k R D.{.) !.T.:XMXD._ &.T =X;.6.,X-.f ",
"  < n.V.3 > > # u n N 5 $.W L 9 `.;X`.E  .$.( pXpXpXcXL.D.T |.] t I N  .} B.0.k.4 k.a 9. X5.G /.(...h.J.!.*Xs.2.h.V.j V.j.H.=.g ",
"+ - 4 L % < i @ E * n.m.< z z ;  .3 P V Y x.5.|.aXD.7.XXZ.:X5 1 [.~.{._.s 9 / ..G Q '.ZXZ.v 8.qXH./.T Z.Z.,Xw.L.J.rXq.4 x.<X*XW.",
"t 8.T + @ N ` M s ) 7 8 m.~ Y l.w ; E h ) C.^.I z.T ^.XX` ^.> %.PX XvXI I C G /.XX! 6XB.a Q nX2X6.N G s , W 0.T.W.#./ n #.K $.e.",
"h I k.i z < Z `.v < ; N v h h L Y  .} P c o.| O iXA.F.} q &.%.T.A.A.P .XW W ~.I pXBXa.Q.m.h.W I &.c.i y  .@ <.0.6.BXL.7XP.P.P.mX",
"y.3 Q C i S D h.0.M } N 1 S.x.; B.4 K Z.S.XX~.W L F.} V dXI 0 ` dXiXA T.~.XX0 , o.ZXE B Q F.o.B p x.:X;XI G x c A.{.u.>X$X>.`.z.",
"9 i W z.. v x 4 C 5 2 c...;.s.I.S.xX^./ V.] { L.` _.Z.S.uX} G 0 x Z S.^.|._.% N S ;.B.:X: 9 R.Q &.r.Z.L.Y K.Q j _.V 3 p l.VXjX&X",
"Z . 4.K b z } s + q E P.Q.~.6X`  .T 9.k L ( t B.V.h...F { | X.C ` 2 & Y.q P U.w.5._ 7.>XL._ V.C m.T.) P B $X>Xx.).qX8.5 : _ c.6.",
"$.2 U 6.I _ E 6 8.3.5.E E dXB.) 9.H $.X.=Xf G.:XK P n.> w s cX6 > XX/.A P x U.E.L.Q.T A.VX[.4.w._.].(.cXMXcX!.B.zXiXrXfXZ.&.+ c ",
"y.2 2 . z ^ 1 X ; T s.T - g 5.a C.h.v.[ c.M b.kX`.; v.:Xz ..hXU [ (.| < _ o.| 3.D.9.Q ` {.} OX6XZ.BXQ.*Xc.T i.s.9XP.MXf.8.8.7 < ",
"F 6 I F y P P 9 `  .X.#Xm U 4.l C j e 4.%.q Z MXcXV.}.A.x o..XG T.|.S.!. XE.wXT e =X/.a.9.:X3XMX^. .[.l.$.6.bXjXrX3.n f.qX`.H.g ",
"B.Z : ( f , N + G c.R.P.OXQ ` i < B.j.:Xb (.Q /.'.vX( ].j 0 o.].j.v. XI cX<.i.:X!.>XiX<.U.W.p.tXq.].kXT Z.#X}.V.c v *Xx.| ~ h I ",
": X 2 e @ 1 i U 5 S.j.S a 9._ &.; & d H.mX&.w ; > L W M /.B.3  .kX} b.}.E y t k 6XS.M 0. X6.wXU ).bXK.T.nX}.!.j.h eXIXc.O.*.@X!.",
"  , N : : 0 @ | T L.X 8 G i k B F E _ P D.4 k.q R (._.t n.m.V U z ~ &.7.b.v ,XS.W.7.=XsXD.+XU -.%XW.L.ZXD s ^ NXiXl. Xv.J.FXjXrX",
"o T O . J } Z u g p b F B.- l t !.U Z A K [ o.A Q U.W V.=.j., 4 n t K C.U.wXy._ ^ E.) H.[ /.#Xw.GX,.`.J.+X,XT Z.H.G s OX8X8X;XgX",
". = > U ) 9.K n 0.p a = ~ t.B.X.f N 6 X.) /.| k.a 0 a B dXQ I  Xw.MXV >Xn./.W Q.7.z.y S.%.@XlX#Xe.GX&XQ i.%Xw.#X@X/.E P.J.q.GX8.",
"> a z j.z i ;.4.`._ W u.T F.= Q = L.n. .! Z { } {.0 r.E 0.=Xv.* 4 mX%.C 7.* H.&XgX{.&Xf ,.h._ | %XjXm.&.V.#.O.r.*X[.[ S.&.g.5.jX",
"M & y p 0 O A.3 . R ; S.Q ) 5.v T < C.C.T c.&.o aX| ).Q Q +X0.~.v +XQ.Q.a k.y.b K >X|.R.%.sX/.x.8.O.&.J.`.u.e.OXgX~.$XR.I l.8.$.",
"Q /.& h k A.W M 3 Z 0.j s j 5.~ j.9 c i Y r.U X.W S kXL.&.q c.7.K.W.r.0.K L j 5.B d.c 5.3.0.`.s.R.$.G.+X3X8X&X+.7.T $.mXOXI.;X5 ",
"v wX XJ d Z Q ( ) s _ f 7.g 1 Y #X7X XV.B : `.k.H &.8.h.i.l k.5XrXqX8X^.} b n q.tXt.D.N n T W 0.hX@.>.k.qX-XJXJ.V.sXu GX<X#X3.q.",
"b ) 3 { Q y T e 9 N 0.V.i.S.v.:X=XM.} 4 O 1 t sXuXC q nXqXQ  .iX|.V.b s.lXm.j 8.' P |.=.@.V.L.i.h.I.c.,X*Xv.+.M.D.] R.>.P.=.GX<X",
"t o i n.3 - S % * 7.` B 9 ( G.i  .&.S Q.*.x =.uXb 5  X_.V.$.*.N } E K.wX!.#Xv.).Y R [ q.8X^ ].c.+.0.>.b u >.e.7 %.3.$X8.p.7XSXI.",
"- t %.0.< < ; ; f 7Xj.+  .$ R R R fXVXE.7.S L.j.k A.S $ o E :XV.b.b.F k.I r.#X'.D.0.v.GXOX;XgXC ;.e.2.f.x 1.H.@Xg.*.I.6.:.m e.G.",
"l e h k p 9 $ + 1 &.0 q { F.s , D.wXaX}.E.7XV.H D G /.X.J R E s C C.0 U v ).A.'._ n.sX-XT z Z H #.J *Xn Q R.0.<X>.v 1X1X+.OXw.CX",
"Z.y.6.i s 3.h W.4X/ 7.T.o h.F.~ ) H. .B.H 6 n C K %.L. .b.a p C l j k S.U jXG 7.L C ..7.i.;.m 6.[.&Xp * S n f.4Xb B.}.@.g.I.3.f.",
", &.9.  v.3.9.wXK.< U } c.`.B.` P 0.N sXQ i Y &.4 U ~.x L.I y Y T.R.Q N T.Y S m U.&.u o >.+.<.eXZXN.4.8.%.e.+.0 R.p.oX1X1XN.-.g.",
"(.f A ] & - : ! k i f ;.G.*.k.B a I B D.'.V q |.[.i.6 U s  .1 w BXgX~ k.{ ` V a V X.eX&Xa V.e.G.!.g.IXNXR.eX= h p.CXtXf.DX4X+.D ",
"E.U U s T 8.# % w E V.$.) W R.0.E E y.0Xk.t.^ v.7.) ).*.Y | ..9.V.q B.0XXXb '.N | '.| /.n.w.e.8.2.tXP.8 =.h.D =.l CX<Xe.3X4.4.n ",
"P.[ & Z.G 4 s.$.) k.t.t o , 5 Y.` B a i o.}.j.N E 9 _.tX>XjXk.6 v.n * U v.A.L.k.| ..& j E !.w.i.eXfXv g 6 h.,.g j.>.1X%XP.Q S U ",
"> q o : r K 1 u w B 5.` & S *Xe ! | a Y z.8.K N |.t.: J u j 0.oX#.G &X} o O.H.B._ Y y S eX>XQ NXe.@.$.n u.$X3.eXq.,.f.g.c.~ 5.l.",
"w %   o K V.X.a u = n C  .!.3.7.;.-.0 ( P.k.0 , iX7.s d 9.l k.'.I.p 3 T !.G G K.lX= -XI.6.Q.$XXXeXf.,Xl.1.!.@X#.:.oX1X4X7XJ.OX*.",
"k C.r a i D Z 8.Q 5.= 1 0.G S H *X*XV.& l l.s E | |.+X6.E 3.9 v.H R.6.%.6X}.&.F H G.ZX8X6.;.i.[ OXZ *.oXU 6 OXJ.g e.<Xf.e.:Xf.@X",
"dX( e Q :   K [ L q O N 5 N x n n. .z i q H._ y U '.V i < R L.> z.: f.[ N $X,X@XI.+.L H.t.f `.T R $.e.%X<XP.c B.f 4.G.zXN D >.8X",
"q O   , i c 9 1 r $ q + * j i S.; y k d.Q l b b ~.S.n s.8X} V.d c.i.*X/.< J.!.i.*.*.@X%.g s } Y n e.-.& f oX0.:.4.3.>.9XR.G.n d.",
"< O d H.V.q.& W : * H S 9 : M 5 w i - i.$XW ).l.l.{ >.O.i T G t +.V E OXD 3.Q l D =Xm.oXFXS.9 f.bX=XlX6 j e.R.u #.3.4.q.f x.I &.",
"X 7.R.< 8.J o ;.: $ I / 7.s R . * a p ;X*.x.kXl.#.#.4 G.j f L.$.l.zXsXL.).l >.,.1X&XGXGX4XtXZ.u.J.k.rX1X>.f $XI.t E S U %.O.f E ",
"d n < b p $.U z l ; W l l.v p l u w w z.& k  .+.v I 0.%.6Xt.8.J.#. .3 f E.CXm v.f.=.lXjXc u =XJ.,X`.+.5.6 n ).G.OXm I.H.L.@X3.6X"
};
