/* XPM */
static char *grassbg_overlay__1__resized[] = {
/* columns rows colors chars-per-pixel */
"64 64 248 2 ",
"   c #000000",
".  c #0C0907",
"X  c #130B04",
"o  c #190E05",
"O  c #1B1208",
"+  c #131313",
"@  c #1C1C1C",
"#  c #27170A",
"$  c #351E0B",
"%  c #352411",
"&  c gray15",
"*  c #292929",
"=  c #313530",
"-  c #4B3011",
";  c #5A3819",
":  c #613D1C",
">  c #085B04",
",  c #0D500A",
"<  c #0B6706",
"1  c #136302",
"2  c #156C06",
"3  c #0D7504",
"4  c #147402",
"5  c #1A7401",
"6  c #147902",
"7  c #1B7B01",
"8  c #15750B",
"9  c #1B750B",
"0  c #1B7B0C",
"q  c #0D6413",
"w  c #176A13",
"e  c #1C7915",
"r  c #227C03",
"t  c #2D750C",
"y  c #257B0A",
"u  c #267716",
"i  c #247D13",
"p  c #257B19",
"a  c #35791A",
"s  c #2B7A22",
"d  c #6B421E",
"f  c #504E2C",
"g  c #6C4320",
"h  c #754923",
"j  c #487438",
"k  c #474847",
"l  c #545555",
"z  c #596F4E",
"x  c #6F7070",
"c  c #88552A",
"v  c #8F5A2D",
"b  c #9B6231",
"n  c #A76936",
"m  c #AF7039",
"M  c #B6743C",
"N  c #C27E37",
"B  c #1C8302",
"V  c #1C8B02",
"C  c #1B860B",
"Z  c #199106",
"A  c #1C8416",
"S  c #248403",
"D  c #2A8404",
"F  c #2C8C03",
"G  c #23830C",
"H  c #2D830D",
"J  c #248B08",
"K  c #2C8C0B",
"L  c #338D04",
"P  c #328C0C",
"I  c #3A8909",
"U  c #2C9203",
"Y  c #289708",
"T  c #2D920C",
"R  c #339403",
"E  c #3A9604",
"W  c #349C04",
"Q  c #3C9B04",
"!  c #34930C",
"~  c #3B940C",
"^  c #359A0C",
"/  c #3C9A0C",
"(  c #248313",
")  c #2B8313",
"_  c #258B14",
"`  c #2D8C13",
"'  c #25841A",
"]  c #2B841B",
"[  c #2D8B1B",
"{  c #328C13",
"}  c #3B8C13",
"|  c #368618",
" . c #328B1B",
".. c #2D9314",
"X. c #2B9416",
"o. c #339314",
"O. c #3B9513",
"+. c #349B14",
"@. c #3C9B14",
"#. c #34931B",
"$. c #3C941B",
"%. c #349A1B",
"&. c #3D9B1B",
"*. c #39A308",
"=. c #31A612",
"-. c #3CA213",
";. c #3AA418",
":. c #2A8624",
">. c #348B23",
",. c #398B26",
"<. c #2C9525",
"1. c #3C9424",
"2. c #3B9B23",
"3. c #389827",
"4. c #3B932A",
"5. c #369033",
"6. c #3B9733",
"7. c #39A325",
"8. c #3EB923",
"9. c #449708",
"0. c #4A930C",
"q. c #449B0C",
"w. c #448C18",
"e. c #439C14",
"r. c #4B9D13",
"t. c #469718",
"y. c #439B1C",
"u. c #48A807",
"i. c #43A50C",
"p. c #53AA09",
"a. c #4BB406",
"s. c #57B50B",
"d. c #43A314",
"f. c #4BA514",
"g. c #44AB17",
"h. c #4CAC13",
"j. c #43A31C",
"k. c #4CA41C",
"l. c #4BAB1C",
"z. c #54AC13",
"x. c #56A81A",
"c. c #4BB317",
"v. c #59B719",
"b. c #5BB41C",
"n. c #64B40F",
"m. c #64B819",
"M. c #428929",
"N. c #439B23",
"B. c #469928",
"V. c #539D23",
"C. c #449B33",
"Z. c #499936",
"A. c #539B35",
"S. c #44A323",
"D. c #4BA423",
"F. c #44AA22",
"G. c #4BAC23",
"H. c #45A62B",
"J. c #4BA42C",
"K. c #4DAC2B",
"L. c #55A526",
"P. c #54AC23",
"I. c #5BAB23",
"U. c #54AC2B",
"Y. c #5BAB2B",
"T. c #4DB426",
"R. c #56B727",
"E. c #5BB424",
"W. c #5DBB24",
"Q. c #54B32C",
"!. c #5CB42C",
"~. c #4CA334",
"^. c #4BA734",
"/. c #52A333",
"(. c #54AC33",
"). c #59AA38",
"_. c #4DB132",
"`. c #55B335",
"'. c #5CB333",
"]. c #5CBC34",
"[. c #58B739",
"{. c #5CB43B",
"}. c #63AA28",
"|. c #65B725",
" X c #62B42C",
".X c #64BB2B",
"XX c #6BBC2B",
"oX c #72BC2C",
"OX c #62AB36",
"+X c #64B434",
"@X c #64BB34",
"#X c #6AB836",
"$X c #62B53B",
"%X c #63BA3C",
"&X c #6CBC3B",
"*X c #75BA3A",
"=X c #5CC51C",
"-X c #68C41D",
";X c #76C919",
":X c #5EC42E",
">X c #68C528",
",X c #76C828",
"<X c #7BD42A",
"1X c #65C636",
"2X c #6BC134",
"3X c #6CC33C",
"4X c #76C83A",
"5X c #7CD436",
"6X c #4B9845",
"7X c #4FA741",
"8X c #5AA944",
"9X c #5BB746",
"0X c #65A945",
"qX c #66B844",
"wX c #70BB50",
"eX c #6CC445",
"rX c #76C946",
"tX c #7CD347",
"yX c #73C452",
"uX c #72CD50",
"iX c #7AC853",
"pX c #79C662",
"aX c #DD9529",
"sX c #E19928",
"dX c #82D036",
"fX c #98874B",
"gX c #B58F55",
"hX c #C6AB5C",
"jX c #D6B964",
"kX c #81C24C",
"lX c #86D547",
"zX c #84CA5A",
"xX c #87D756",
"cX c #86D468",
"vX c #8DD56F",
"bX c #D7C97C",
"nX c #E7C86D",
"mX c #ECCC6F",
"MX c #EED074",
"NX c gray65",
"BX c #B6B9BA",
"VX c #CCA387",
"CX c #FBE78C",
"ZX c #FFEF95",
"AX c #F0E4DC",
"SX c #E8E5E3",
"DX c gray94",
"FX c #FEFEFE",
/* pixels */
"a.`.2.g.^.i.K.G _ _.9XS 4.R.^ [.`.*.C.o.i.T.=X! _ #.&                     + f T.).+Xd.o.qX'.@XxX>X|.pXrX&X$X).7Xe./ f.s..Xt.r.R ",
"d.T R.R S.W c.C.&.U ` / 3.).[ K.W R.R.G E Q.&.      k NXSXFXFXFXFXFXFXFXSXx +       j 2XwXtXrX@X>X5XeXlXE.k.D.,.} / ' .X~ XXyX! ",
"o.j.6.R.T.l.l./ &.7 3.K.E D.J.@.&.@.c.&.[     DXFXFXAXgXVXAXFXFXFXFXFXFXFXFXFXFXFXFX  k wX;XdXlX.X!.yX,X XcX).y $.I.k.u.-XE.rXe.",
"j.].F T c.X.7.C :...S -.R N.| ) u R.k.l.    FXFXAXM M M M M M M M M M M M M M M M M M   xXcX}.4X,X&X>X$X+Xm.xXXXqXqXe.E E N.E.|.",
":.l.@.%._ T ( -.F 7.G A u S.f.l.G.b.) z   FXFXM m M M M M M M M M M M M M M M M M M M M   lX'.c.tX].7XrXW.yX X#Xb.xXqXk.'. Xu.x.",
"G _._.e B ( [.*.c.l.! K >.O.o.e ~ {.O.  FXgXM M M M M M M M M M M M M M M M M M M M M M #   [.H.@XH.@.].z.h.P.wX4XoX#X4Xv.i..Xm.",
"F { o.&.W H.' 2 H j.! U 1.N.1.j.| [ h.  M M M M M M M M M M M M M M M M M M M M M M M M :   W.R.].2.K R.u.H '.xXf.|.,XL.m.4.XX|.",
"] &.;.o.W ! *.e.[ D :.R y.F $.R.U G W   M M M M M M M M M M M M M M M M M M M M M M M : :   + >XyXf.{ !.!.Z.rXkX.XXX*X,X5X@X.XqX",
"u.I P.! ^ A O.a.z.I I.~ 2.[ ^.K.Y [.uX  M M M M M M M M M M M M M M M M M M M M M M ; : : :   %Xs.rX=X[.].s.n.|.+XtX.XW.x.W.! H.",
"{ w >.5 9 :.2.y / P.Q.y F g.{.V.| R.1X  M M M M M M M M M M M M M M M M M M M M M d : : : :   y.Q.vXxX5X!.%.v.rXiXA.O.E.D.! /.c.",
"o.J.Q.7.X.9 N.3.9 g. .Q.g.9Xy.P V.eXE.  M M M M M M M M M M M M M M M M M M M d : : : : : :   C.&.].z.rXQ.Q.G.>X3X}.5Xs.b.Y.y.e.",
"[ K i #.h.W X.$.p _ y.T 2 &.k.,.9X|.=X  M M M M M M M M M M M M M M b d ; d ; : : : : : : :   j.3.6 1.l.c.(.e.a } lXvXrX-Xf.y..X",
"0 ! @.o.v._.] 7XW O.@.` _ F T.D.} _ 2.  : : : : : : : : : : : : ; : : : : : : : : : d               k 6X .E G.9XxX).cX<X>XXXiX4X",
"d.F < N.5.R 7 W.j./ U.S.^ 6 [ #.$Xi i   : : : : : : : : : : : : : : : : : : : : d     h M M M M m ;   .     qX Xn.2X2Xx.+XyXE.s.",
"_ 9 ! 1Xo.] ^.).C.`.i.4 G J s k         : : d : : : : : : : : : : : : : : : : :     M M M M M M M M : : :     x.$XqXW.q.P {.>X].",
"9 _ C.>X&.#.9 J.c.o.e { <.k     M M M v                                         . M M M M M M M g : : : : :   ;.L.V.m.P.s.b.N.t.",
"$.$./ @.! B.T.C 2 9 ,.{     M M M M m M M m n c c h d d h v b b n n n n n M M M M M M M M M d : : : : : : :   2.&.-.I.b.z.|.t.K ",
"T.;.S u B. Xl.^ i q.W >     : : : h c b m M M M M M M M M M M M M M M M M n h d : : : : : : : : : : : : :     +.i.^ $XvXL.&.U.J.",
"C.y.) [ F.F.J Y 3X} e ( E     : : : : : : : : : : : : : : : : : : : : : : : : ; : : : : : : : : : : : :     O.d.Y.@XqXD.>Xn.f.P.",
"i k.P.U 4 < > _ 4.F.qXT.$.| qX      . ; : : : : : : : : : : : : : : : : : : : : : : : : : : : : : : ;     {.(.*.C.B.@XO.u.m.rX$X",
"*.j.r O.> q < V 5 o.@.R w 9XK.P.1.0X@                                                                 8XkXe.4.O.9XO.S U.k.+XxXzX",
"!.r u ! C 0 ..V 6 [ _ ,.H.7.H.1.p ^ $.K   mXmXmXmXmXmXmXmXmXmXmXmXmXnXmXnXmXmXmX        * *   ). X'.iXT.>X4X3X`.R v.Q l.E.4XrX5X",
"T 0 N.[ F -.[ 2 G ) o.P.W _ S.3.3.i.l.`.  mXmXmXf MXmXmXmXmXmXmXmXmX  mXmXmXmXmX  mXmX%   *   -X!.0XxX`.Q.|.OX{.S.wXV.R v.I.L s.",
"1.(.1 , ' _ ! #.> q K %.q a ] ( ( G.>Xj.  MXMX%   mXmXmXmXmXmXmXmXmX  mXmXmXmXmX  mXmXnX  *   3.i.l.&X&XuX%XxX{.kXzXA.Y.XX_.T f.",
"w 4.d.1 ` / S.[ :.W Y ] 2.S.>.t.p o.Y O.  mXmXjX  mXmXmXMXmXmXmXmXmX  mXmXmXmXmXmXmXmXmX  *   j.8Xb.%XeXyX|.u.{.L.>X@X3Xz.U..Xe.",
"( 8 _ 9 X._ 3 J _ D p p G V X.:.o.^ ' d.  ZXZXZXZXZXZXZXZXZXZXZXZXZXZXZXZXZXmXmXmXmXmX    *   8Xf.O.].rX/.rXwXh.iX2Xx.].k.x.xX'.",
"C 3 i T ;.( C +.Z B u e 3.C 4.+X_ =.N.V   ZXZXZXZXZXZXZXZXZXZXZXZXZXZXZXZXZXmXmXO       * *   ^.' ~ R .XeXeX(.[.+XyXj.m.s.(./.,X",
"S y.C.S 9 ` {.E.3 8.F.{ ! K 8Xy.i 3 (.T.  ZXZXZXZXZXZXZXZXZXZXZXZXZXZXZXZXMXmXmX    * * *   . G._.l.!.P.$XyXD.d.y.t.%Xu.z.OX9.L ",
"> u 6XJ.i 9 w 1 I E H u y.d.Y V '.$X`.~   bXZXZXZXZXZXZXZXZXZXZXZXZXZXZXZXmXmXmX    * *     _ ~.K.5.,.Q.|.'..Xa.M.l.L B.M.U.h.I ",
"2 5 y o.6 6 A w O.r A.6X0 Y Y u 2.u U [   fXZXZXZXZXZXZXZXZXZXZXZXZXZXZXZXmXmXmX  . *     ! k.>XI.^.&.x.l.+Xh.`.P.eXb.H C.3X X!.",
"B l.&.8 < [ g.( Y 2.9 a Z.;.=.N.A 7 %.Y s . ZXZXZXZXZXZXZXZXZXZXZXZXZXZXZXmXmXmX  +   x F y.iX>Xu.] F [ 0 &.k.v.|.@.u.^ w.R 0.x.",
"P K H.S ^ e K ).{ B y ) ~ U V +.+.e.>.<.@.  ZXZXZXZXZXZXZXZXZXZXZXZXZXCXmXmXmXmX    v.`./.>.+.K V.J.G J 3.8 h.l.f.uXl.>X!.).Y.rX",
"l.i ~ >.i ! $.$.x.) 4.) r C.N.r j.t T /./.(.  ZXZXZXZXZXZXZXZXZXMXmXmXmXmXmXmX    l 1.:.7.S.F.A ` N.%X{.$.K T W H.`.s.2X].u.`.1.",
"C 6 7.<.1 L { t ' t 9 C.C.u.=X/.Z.0X`.=.g.:.=   mXmXnXnXmXmXmXmXmXmXmXmXmXmX    .   e.{.5 G T.&.q.T.G.G.%.).&.U _.[ a H y.zXqX#X",
":.1 k.U 4.W <.P w ( @.U.`..X>X7.H.R 8.W <.=.S /.      f hXmXmXmXnXhX-                   !.7.d.| ).G.;.=.G 2XqXZ./.3Xf.H 5 2.A.z.",
"&.t 0.u.&.@.#.a g.@.G.$.} qXF.-.g.~ O.,.%XP Y.[.    . X               % M M     M d : .   ).D.I.).9XH.qXeX3X'.U.8X0XeXqXK.g.< ! ",
"g.t s , T *.S , A Q s.i.9 P g.S H.B.M.B.r.a A.    M       FXFX  BX  m M M     M M : : : X   |.2XK.eX+X@Xr.y.E.s.2X+XeX-Xk.Z.t t ",
"| u } >.J _ <.B e.6.1.XXU O.D.^ s Y J d.1.V :.  . M     FXFXFX      M M %     M M n   : ;   *X1XQ.y./.V./ c.3XqX3Xe.9.m.3X'.v.D ",
"&.) 4 =.R e p 9 ,.B.R.Q.!.e.-.e ( C.e.1X#.~.  :       . FXFXFXBX@     g       M M M : ; d ;   rXs.).wX4.Q.:X(.A.W L qXC.$.E U <.",
"u , u F 1 G B w.u J.t.{ [ g.i.7.r 3 D P.rXj.  M     n   FXFXFX    M     #     M M M : d ; d   k A.rXD.`.3XW.!.B.J 4XcXB.r.r.E.'.",
"> 8 >.5 r G 5 <./ Y., p #.) K _ | $.-.<.K.|   M   M M   FXFX.   M M M c   M   M M M b : : : :   oX!.Q.pX} D i.iX9Xd.qXN.L.zXwXoX",
"q 2.> < i 6.P ! >.H E :.y.w ! B '.$.[ G {   b M   M M   FX.   M M M v   M M   M M M M : : : :   rXf.Y.Y.W.%Xe.G.L.} ` +X,X,XOXyX",
"> 7 2 $.g.j.P ! c.S ) 7 d.c.^.6.K ] i 6.&.  M M   M M   =   M M M g   M M M   M M M M : : : : o . lX#Xw.E.s.x.:X@X/.{ Y.L.s.lXr.",
"5 K T 4.Y p l.i.(.g.6.a.o.F.6 &.r (.B.C.^   M M   M M     M M M X   M M M M . $ M M M : : : : :   wXA.9.J.e.f.u.$X^.w.(.r.z.l.wX",
"p 4 F ) V q j.G 1 ` 6 K.j.=.g.R @.5 F.S.z   M d   M     M M M       M M M M m   M M M d : : : :   ~ y.!.).E.x..XyXR.>XI.$.B.V.N.",
"4._.2 F ..;.#.:.u >.D. .K U g.*.$.( *.B   M M :       M M M     BX  M M M M M   M M M M : : : :   V.k.W.>X,XOX9.N.q.j.4X|.k.#Xu ",
"E :X9X) G X.&.=.-.[ j.K d.F u ! @X2X'.H.  M M :     M M M   . BXBX  M M M M M   M M M M : : :     } p.r.XXXXzX}.G.{.K tX*X3X9.z.",
"/ =.u 4.e.V @.J C F h.D.Q.V.y.qX2XB.w.)           M M n   x BXBXBX  M                         #   L.Z.#X#XC.W A.J.>.Y.u.Y.r.lX&X",
"D 1 G C.y 5 [ 6 7 y.7._ B =.G.' 3.y.} U.  mXmXgX  O .     + . + +       M M M   ZXZXZXZXCXmXmXfX  G.*.E K *.x.a } r.@Xk.E.-X5XY.",
"e G 2.h.S u 8 A U >X#.2 2.3 O.>.3.eXuXv.  mXmXmX    X o # # - - -     M M M M   ZXZXZXZXZXmXmXfX  z.s.=X*.a.c.}.m.r.L.f.p.E x.V.",
"U J J F ] H 4 6 p @.K G X.^.S e g.>XqX{.  mXmXmX      M M M M M M   M M M M M     ZXZXZXZXmXmX  O.H |.~ 6.`.L.4Xj.L .X*X0.b.x.lX",
"g.c.h.C K i.U R.;X*.-._.1 M.F.*.2.Q.4.J.+   mXmX  M     M M M M M   M M M M M   #     gXZXhX  h.~.+XL e F 9.n.-XT G.+X9.Y.Y.r.s.",
"e -.F.< &.N.d.:XA.C &.4.Z.+XH.+.U l.' ).j.*       M M n             M M M M M : ; : :       s.@XkXOXr.f.N.z.u.C b.}.}.oXoX}.w.}.",
"~.P >.' 9 9 8 +.R S P g.p.y.2.K ( Y X.(.F. .) [.  M M M M . $ - ;   M M M M M d d ; ; d :   u.OXOX}.vXiXz.eX5 F !.*XdXm.dX;X0.| ",
".XO.O.F / j.9 6 7 &.D.d.;.%.`.l.+.2.g.1XN.P.f.1.  M M M M M : : :   M M M M M h : : : : :   k.f.s.tXU.a x.Z.} V.T eX4Xp.,Xu.f./ ",
"U.1.6 J.>.p b.@.;.N.c.G 1 0 p c.-._ _ C j.].4.H   M M M M M : : :   M M M M M v : : : : :   z.R.4X$X! I a j p.D w.z.m.#X).O.P O.",
"w A < 6 C T 9 L C _ j.7.6 K ].J ^ #.J =.C.f.K :.  M M M M M : : ;   M M M M M M : : : : ;   @.rXx.w.q.&.z.XXg.*Xs.k.m.x.A./ u.J.",
"B 6 > > +.D.6.' T 7 O.F 2.{.l.d.f.E F +.K.V.S 9   h $ $ # # X       M M M M M M : : : : d   wX).4X|.|.N.a. Xm.O.u.OXoX;X-Xz.W.y.",
"X.;.A X.i K  .f.%.c.7 5 U. .] w.+X Xj.6 K B.F 2.      - - o % d     M M M M M M : : d ; %   E.M.b.o.t.OXO.u W.Q.L Y.oXm.L.%X.X|.",
"1X-.Y Y w q ` ,.#.B 3 s p _ ..Q Z.2.^ A C G.;.  sXsXsXsXsXsXM M                             G.@.$.$.z.XX*XI.W N.~ q.I.0Xa I f.>X",
"A 1 > 5 D L 7 G e 3 C 4 6 U A J.0 A Y b.&.T     sXsXsXsXsXN M M   ; sXsXsXsXsXaXM M M M n   5.W q.k.w.5 I }.G.a.d.f.q.3X!.P.0.b.",
"i 1 K l./.b.6 +.0 B [ o.D 5 :.u V _ 5 n.@X4.                      sXsXsXsXsXsXsXM M M M c   C -X%X1XwXa R x.x.K @.g.f.x.R B.$.Q ",
", j.T.0 l.H < a.8 3 [ i.d.| ! > 6 C :.$Xk.6.wXz fX@.H f.I ` (.    . o O o o o o o o X .   * Y.z.}.N.qX4Xu.L >XA.D O.{ y.$.e.! $.",
"D W i e.S y.O.X.T 0 @.X.7.~ D #.` V B Z.3 Y N.@.[ o.l.M.>Xc.H.}.+ + + + + . + + + + + @ * K !.!.&XI.r.j.i t./.x.!.O.P.x.L.#Xi.1X"
};
