/* XPM */
static char *wall_resized[] = {
/* columns rows colors chars-per-pixel */
"64 64 250 2 ",
"   c #150C09",
".  c #1C1613",
"X  c #150F0B",
"o  c #28130D",
"O  c #2B1A14",
"+  c #241D1A",
"@  c #271A15",
"#  c #331B14",
"$  c #381E17",
"%  c #200E0A",
"&  c #2A211D",
"*  c #34231C",
"=  c #3B241B",
"-  c #37251C",
";  c #2A2522",
":  c #342A25",
">  c #3C2B24",
",  c #372B26",
"<  c #3B322C",
"1  c #3C3834",
"2  c #46271B",
"3  c #542A1C",
"4  c #5D301E",
"5  c #442C23",
"6  c #4B2D22",
"7  c #432C26",
"8  c #453026",
"9  c #43332B",
"0  c #4B342B",
"q  c #4C362C",
"w  c #533225",
"e  c #5B3425",
"r  c #553A2D",
"t  c #5C3B2C",
"y  c #56352A",
"u  c #4B3C33",
"i  c #453B35",
"p  c #523C32",
"a  c #5A3D32",
"s  c #552E24",
"d  c #653B2C",
"f  c #6B3D2D",
"g  c #663726",
"h  c #763D28",
"j  c #683F31",
"k  c #713F31",
"l  c #4D423B",
"z  c #4B4136",
"x  c #54443B",
"c  c #59453A",
"v  c #5B402F",
"b  c #77422E",
"n  c #644334",
"m  c #6C4333",
"M  c #6B4B3B",
"N  c #64493B",
"B  c #734533",
"V  c #7A4534",
"C  c #744C3B",
"Z  c #7B4C3A",
"A  c #774936",
"S  c #7D523D",
"D  c #6D4431",
"F  c #4B4641",
"G  c #5B4C43",
"H  c #564B44",
"J  c #5C514A",
"K  c #5E5D56",
"L  c #664E43",
"P  c #6B5345",
"I  c #63544A",
"U  c #6B564B",
"Y  c #675649",
"T  c #735343",
"R  c #7C5442",
"E  c #7C5C4C",
"W  c #75584A",
"Q  c #6C5D52",
"!  c #645A52",
"~  c #745D51",
"^  c #754F41",
"/  c #6D6158",
"(  c #736254",
")  c #7B6353",
"_  c #7B6559",
"`  c #7C6A5D",
"'  c #73665B",
"]  c #7C6D63",
"[  c #746A63",
"{  c #7C7268",
"}  c #6B6761",
"|  c #813E26",
" . c #88452D",
".. c #934C2F",
"X. c #844A34",
"o. c #8A4C34",
"O. c #864E3A",
"+. c #934E34",
"@. c #84523D",
"#. c #8A533C",
"$. c #89573C",
"%. c #93543C",
"&. c #9A5639",
"*. c #A75C3A",
"=. c #AD623E",
"-. c #B5643F",
";. c #845542",
":. c #8B5642",
">. c #855A45",
",. c #8C5A44",
"<. c #835C4B",
"1. c #8D5D49",
"2. c #935C44",
"3. c #9B5D42",
"4. c #935D49",
"5. c #9A5B46",
"6. c #885F50",
"7. c #A35D42",
"8. c #A45F48",
"9. c #8D624C",
"0. c #86614A",
"q. c #94634C",
"w. c #9B644B",
"e. c #9B6548",
"r. c #8C6453",
"t. c #846B5C",
"y. c #8C6D5C",
"u. c #876654",
"i. c #946551",
"p. c #936A54",
"a. c #9C6B54",
"s. c #936E5B",
"d. c #9C6A56",
"f. c #9C735C",
"g. c #977159",
"h. c #89705F",
"j. c #A26244",
"k. c #A3654A",
"l. c #A46A4D",
"z. c #AB6A4B",
"x. c #AB6546",
"c. c #B46A48",
"v. c #B7714D",
"b. c #A36D54",
"n. c #AB6E52",
"m. c #A46E59",
"M. c #B46E51",
"N. c #A47256",
"B. c #AB7255",
"V. c #A3735C",
"C. c #AB745B",
"Z. c #AB7A5E",
"A. c #A7785D",
"S. c #B47454",
"D. c #B37A5D",
"F. c #B97858",
"G. c #856E61",
"H. c #837264",
"J. c #8B7364",
"K. c #8B7B6C",
"L. c #86776A",
"P. c #947463",
"I. c #9D7A64",
"U. c #937C6C",
"Y. c #997866",
"T. c #8A7D72",
"R. c #957D71",
"E. c #A57B63",
"W. c #AC7C63",
"Q. c #A57A66",
"!. c #B37D62",
"~. c #B77D63",
"^. c #C6754A",
"/. c #C37A57",
"(. c #C16D43",
"). c #C77F60",
"_. c #B8825D",
"`. c #AB835F",
"'. c #99806D",
"]. c #8C8377",
"[. c #938375",
"{. c #9C8473",
"}. c #9C8B7C",
"|. c #97877A",
" X c #AC846C",
".X c #A88269",
"XX c #B48364",
"oX c #BB8464",
"OX c #B3846B",
"+X c #BA856A",
"@X c #B58A6D",
"#X c #BC8A6B",
"$X c #B98A66",
"%X c #A38572",
"&X c #A38C7A",
"*X c #A98A76",
"=X c #B48A72",
"-X c #BA8C72",
";X c #B68A76",
":X c #AC917D",
">X c #BC9274",
",X c #B4937C",
"<X c #BC937C",
"1X c #BA9579",
"2X c #BF936A",
"3X c #C5825D",
"4X c #C38C6B",
"5X c #C78866",
"6X c #C9926E",
"7X c #C58E72",
"8X c #C49374",
"9X c #C3947B",
"0X c #CB9B7B",
"qX c #C99678",
"wX c #D39A78",
"eX c #D18E68",
"rX c #D5A27D",
"tX c #CDA47B",
"yX c #988D82",
"uX c #9B9286",
"iX c #AB9483",
"pX c #A69789",
"aX c #B39C8B",
"sX c #B79884",
"dX c #A89D91",
"fX c #A9978A",
"gX c #B7A596",
"hX c #B3A292",
"jX c #B8ADA2",
"kX c #BBB2A6",
"lX c #C49C83",
"zX c #CA9C84",
"xX c #CCA58B",
"cX c #C7A489",
"vX c #D6A888",
"bX c #C7AA96",
"nX c #D4AD94",
"mX c #CBB199",
"MX c #D5B598",
"NX c #D7B58D",
"BX c #C8B8A8",
"VX c #D4BAA6",
"CX c #C9BFB1",
"ZX c #E2A885",
"AX c #CCC2B5",
"SX c #D4C8B9",
"DX c #CFC0AE",
"FX c #E6CDA9",
"GX c #DAD0C2",
"HX c #E0D8CA",
/* pixels */
"nXXXbXK.A e.>.m.B.C.@.,.z.e.@.$.bX'.b oX6Xb.b X.X.qX/./.c.<XCXa.F.F.l.@.@X.Xp.f.-X#XbXt.+XqX0X#XD.V.0X_.XXD.#XaX) e._.6X0X6X$X$X",
"6 = U.h.8 r 2 = O = * # r d e $ iX[.# t w 3 * $ o 2 d e h t.hX2 e D t p 9.W.a.N.OXf.U.' = j M u.N t C e = 7 2 K.5 2 $.2.,.$.9.S ",
"c Y '.}.t.J.J.L.L.u z x x x ( ` iXDX'.z c z 9 < 9 < < u < G.hXz ; ; : :   @ - : + , L.{ + ;     . . . + . X ; Y : X . & : < : . ",
"-X>X*X0X1Xf.f.A.Z.N.u.h.R OXzXwX6X4X0XZ.!.5X3.y.) q.=X=X=XnX0X>XXX.XY.) i c Y.s.6.Q.;XQ. XA.1.<.t.` ) s.p.u.y.cX1Xp.C E 9.) W M ",
" XcX1X@X2.Z R A :.b.P.:X,.i.<.N.B.c.z.j.2.$.%.s.` E.-X XxXsXp.R .Xs.y..X' e e.B.S.k.X.k Z O.5.k.I.L.M b.w.n y W.OXZ.$.a.S M S h.",
"MXnX#Xe.%.4.#.D C e.=XsXN.V.;.W.M.e.M.3.$.Z g 0.H.<.NXu.I. Xg.N.>X>XXX=XgXN !.8X+X+X;.4.m.b.~.D.@X[.C C.k m C h q.W.B.6XtX@XS.6X",
"8 0 # @ * = = = q 8 U :Xd.9.e Z q.A s e S m c |.Q 5 g.T N * m 2.B M B E BXU 1.s.W y O 2 6 M L q y aXc u.p.4.4.d A $.v ,.r.g.$.g.",
"G l z x < x U N _ J.U.{.U W H.Q c x ` ` L.:XBXSXbX( I G 0 : + @ & : 9 ! BXK.> , , , i 1 i , i I { AX' & & + + + + 9 q z Y P.` P.",
"f.{.mXt.D ,.;.4.A.Z.q.R v M W R s.fX%XNX1X*XsXtX1XNXtXNX$XW ( W >.1XxX,X1XOX XaX>X9.:X{.S.n.n.b.:.R qXf.Z :.B.:XP 9.vXNXMXNXr.s.",
"D.1XDXg.Z s.i.i.=XA.i.f.p.S $.V C }.g.xX,X0..X:X*XNXMXNXXXR.}.C f >.>Xf.'.OXXX0XE.e.{.L.&.x.+. .7.x.x.w.a.2.3X:X<.XXtX9XxX.XD XX",
"OXI.aXf.a.r.R b.b.V B C.XXk X.X.<.K.N XX`. Xy.g.1X1XMXFXg.] &Xq.:.S qXtXNXwX6Xj.o.%.*XJ. .%.x.8.8.5XD./.F.F.5X%Xu.vXwXoXcXMXV.D.",
"  o U.-   * X   % $ $ $ # O O O v gX1 @ @ X . % . & z 8 8 ] [.% * O v 6 5 2 = O @ * iXT.3 3 3 2 $ 5 2 # o = y iXH * t e N ( N 8 ",
"( t.{.H.) t.J.~ x x Q H U t.%XJ.y.sX,Xy.) W U c c [ [ ].}.gXbXQ G N c / J < Y ( L.[.hXaXh.{.W u p x l Y P c G aXH.i q x Y z 9 J.",
"!.q.W.d.d.m.;.;.A m :X}.C b.e.Z.@.Z C.S.4Xe.X.e.` T B.`.$XS.4X0XNXcX1XW.}.~ Z.B.9.N.B.$XvXvX8XT _ H.C vX9X+XW.8XtXvX0XvXrX,XP 2X",
"m.m.W.;.Z ^ d d D g %XgXq d ,.#XXXN.Z.q.e.e.o.a.` $.`.h.,Xf.u.p.@XsX.Xp.iX{.@X_.X.a.0X@X#XzXvXxX*X[.h C.sXcXOXW.xXcXnXvXS.*X) @X",
"<X!.Q.,.y Z V B j g '.BXu.S.tX0X2X4XoX3X_.x.x.OX}.8XsX@XI.f.9.:.p.XX@XcXaXJ.NX9XS.v.B.S >XXX-XnXVXU.X.8X0Xd.V.8XeXC.OXxXqXnXU g.",
"7 5 0 a 7 p N q 7 $ G AXH - r c 2 * 5 v m n e {.iXS R n e D m a p a U L }.i = 9 @ o o   . @ % : H.].* p 8 O o * 2 3 3 p p uXL.* ",
"J.Q I 6.P.Y.Q.*X*Xf..XbX%Xs.Q u i x Y L ( ) R.&X:XH._ ` ! ' K.y.y.P.r.P.Y.J.W ~ ] < l ~ Q ~ P ) ,XmX:Xt.*X' H i I [.&XR.iXhXbXsX",
";XsXY.*.x.D.5XeX3XF.z.n.5XD.@XgX{.:.b.oX#XD.w.q.$.9.9.:.&Xu.k.z.k.5./.3.5.5.b.a.=X_ u.tXrX7X<.y zX0X!.A q.:XiXQ.f.9Xb.Z i.~.lX7X",
":.gXQ.x.M.;.R c.F.~.!.~.d.5.OXHX,X9XlX1X XQ.V. X,.9.C.>.fX0.*.e.%.X.X.V e.l.k.B.I.fX~ a.i.T <.n T =X;XOX@XbXpX9.E.b.;.g ^ r.6.^ ",
"A.DXs.z.v.#.f S.:.=XOX!.C s ^ GX{. X<XlX<XE.Q. XQ.=XwX6XBXr.x.z.%.&.O.%.o.b +. .S BXJ t 8 2 y w 6 m r.R C W ( N Q.W.m.1.<.6 s 6 ",
"n }.Y O = = O . .   . X $ + < yXQ @ + & * & + * * < u v BX! o 0 $ @ # > 6 r r y ~ BXJ + & & 9 & @ + ; , < } ' . > c 9 0 a i > 7 ",
"L.aXaX( Y U I ` K.W _ U U.Y.Q.iX{.y.t.' H.H.] I I I / T.bXfXT.[.K.Q u [.&X*XI.%XsXbXaXpX{.&X|.'.x E I.%XcXxXhXY.Y.Y..XR.pXgXhXyX",
"D.!. XA.r.S R.[.1.m.:.i.w.5.7.7.&.&.&.;.}.P.OXN.V.+XE.T r.<.-X=Xr.iXQ :.6X$X`.j.o.o.w.b.q.<.C [.u.X.%.*.,.q.+Xw.:.M :.sXgXi.zXm.",
"x.&.j.N.E l.`.].2 V e.$.Z O.4.4.#.&.&.+.L.N Z.W.a.9.t n d I.;.g.R }.T.Z W.;X@XXX2.a.N.a.$.C C L.Y.:.&.h 1.wXf.XX!.d.#.!.hXi.XXi.",
"qX5X_.4XB.v..XhXq.&.2.x.8.5.o.8.5.7.7.o.BX( XX#X4Xf.C S C ^ t d ^ CX*XA w.m.a.#X4XXXD.q.;.@.S ].T S.(.7.5.oXb.OX7XwX7.m._ d.D.4.",
"c S n M A D aXgX2 s 2 = $ O O # $ 2 5 u DX{ 9 6 5 u 5 6 p q : $ Y BXI 8 6 N N W E c c a c v H.AXF > 6 @ : O = 8 7 0 7 I F @ 9 : ",
"& : x c ( P :XbX) ) T L F x u u Q ~ P.*XsXmXiXy.P N Y G P R.%XP J.sX,X*X'.f.U.L.}.*XaXaXsX:XiXcXiXH.L.H.U G c W E E r.lX-X;.<.q.",
"e.6XF.F.eX3Xv.-.(.(.7.m f.L.1.V 2.x.^.^.*...(.(.(.c.}.U 2 R !.i.a.A.XXa.e.@.p.K.3 -XvXC.b.l.2.2.O.k ;.W.9.E 0 b *.....&.+.*.h g ",
"v o.F.3X3Xv._.v.v.x.F.4.8.{.4.j.:.^.-.7.-.-.*.+.&...U.0.m m M y p.p.S <.;.C '.|.5  XOXB 2.4.;.b.;.Z i.!.w.s.8 V +.....&.*.&.+.h ",
"$.&._.eXwXrXeXwXwXrXvXMX XK.B 5XM.c.c...&.*.x.*.*.=.T = e 8 @ : C 8 - v A n c &XG q.m.k w.b.i.4.4.N.V.d.f s.U V +.| h h h g 3 2 ",
"Y = M S ..$.$.S g D T ) t.fXM b e y 4 e 2 5 a u p M uX' F J / 1 & < & + & < ] [.@ , 7 & $ : $ : q a q w 9 _ G O 7 > & % @ + + ; ",
"CXhXT.G.I u i i I G < - N VX*Xt.U.G.h.H.K.{.:XsX XQ. XcXcXcX,X<X*XK.}.&XaX:XsXBX*XK.*Xp.T U x Y J.h.0.g.1XOXg.'.'..XP z v R 9.p.",
"b.~.5X~.n.m.%XiX#..X_.z.k.&.e.C.D.4XS..X~ D.j.&.j.b b b %.z.4.#.f.].y.q.e.z.B.2X$XXXW.w.;.C '.) p.N.8X`.XX`.a._.X.`.0.J 2  .+.X.",
"n.5.z.8.5.d G.P.4XZ.n.e.n.S.z.2.1X1X9XMX].C.oXS.v.l.e.x.2.8XXX9.A.uXn _.B.a.,.k.B.e.;.q.a.) L.N $X6XtX2XB.XX`.8Xa.N.f.Q - $.3.X.",
"C.).M.n.b.;.}.Q e.F.M.4X8XXXoX6X6XB.S.cXdXO.S.k.z.x.j.z.z.c.*.$.Y.uX# v Z Z q.z.2.;.@.^ 0.@X[.c 2X`.XX`.$.#.#.k.N.9.E }.* 2 3.3.",
"^ Z m.m.4.g T.]   = 2 v q c n t a v w &X|.# r q = - - > > 8 > q ].pXF 1 & X 8 8 > u x Q x ` kXx c z q i 9 l H Y G.] gXSX|.F : < ",
"0 i 9 i i H hXCX}.( ! x ` ~ _ ( U E %XbXcXE c ! ( E u.g.%XaXaXcXcXDXcXbXhX] ( J.iX*XOX;X,X*XsXiXsX:X[.P. X#X#X4X6X4X6X6XqXvX:X_ ",
"Q.!.u.Q.6X6X4XC.A.a.:XsXvX4X$XW.Q.W.xXD.B b.%.%XJ.b.#X9XnXcX>XW.A.@X2X1XcX'. XrXs.1.C.XX<X9X!.D.@XmXgXm h ..*.c.=.=.+.*.=.^.`.U ",
"wXi.i.~.q.#.2.2.S q.hX:X_.4X0X7XvXoX5Xz.b 2.N.t.L.cXmXmXmXnX>X@X`.1XNXFXcXQ g. Xg.r.XX>XnXcX7X7XtXcXT.m *.=.^.^.=.*.-. .c.v.B.) ",
"M.1.5.4X!.A ~.7X7X+X&X6.5X5XvXwX7XF.n.5.+.5.O.P J ) bXlXbXxX>XxX`.P..X`.u.L.c a n ;.A m ^ Z 1.Q.1.6.yXe o...b 3 = = e 3 D 4 >.] ",
"e k d B R B q.9.6.6.|.p y t = @ 2 # X @ 5 # 0 ` dXl I x l u l u , , 1 z yXCX{ u c i < 9 : 1 u u ! [.gX/ I ] / G Q ' U.L.K.K.aXVX",
"1 : + ; : 9 < < 1 F hXL.F p _ G i [ dXpXdX].pXCXCXBXBXBXDXuXkXgXY.P.*X:XlXiXsX X X=XR._ Q.Y.*X%XlX<X<Xd.f.9.,X}.L e p.#.o.4.4.,.",
"f.Y.] P.V.OX9XOXW.~.~.i.:.X.i.%Xt.E s.1.d.g.d.w.q.p.,.:.g.T.' p.d.OXk.2.b.w.O.O.X.C R.t.;XW.sXnXzX>XOX2.#.9.W.iXG.v M t j d d n ",
"h <.T.B 2.b.W.+XN.E.i.;.;.B f J.' f m d ;.X.#.:.4.@.O.:.C G.M ~.-X-Xb.w.b.b.N.-X5.m R.Q y.p.E d.s.V.;.:.2.5.3.*XK.<X;X1.>.6.i.d.",
"2.iXBXI.OX+Xb.8X7Xi.f.f.m.4.b E.U m q.m ;.O.w.O.B a.k w m R.6.qX0XB.7.b.b.w.l.5.%.O.aXI E.Q.2.:.#.2.X.f k k 3 U.a <.6.a N T c L ",
"2.bXdX5 2 a # r d.2 > 5 5 5 : |.].O j y = 5 > # @ * > > 1 pX~ a 5 : 5 0 u 5 0 O 5 0 BX{ 9 H 7 , * 8 u < < 7 L CXyX~ [.yXyX{ ].|.",
"> R.kX[ } ! [ u ; J { { T.|.gXSXSXdXL.K.].! L T.pXuXfXhXCXCXgXpXyX|.G.] ` ] ].&XpXgXbXiXr.u.~ ~ l x J.s.y.L 6.m.~.lX7X).wX{._ ;.",
"hXmXbXnXxXxXlXs.J.R.E r.E.s.f.W.f.W.9X;Xr.R.T.iXQ.7XC.m.n.~.qX7X).M.7.&XR.:.5.F.n.M.8.;.C.Q.e :.J.r e.2.t + k X.%.5.j f 5.*Xt.k ",
"XXW.C.m.b.@X=XQ.iXI f b Z s d ^ R b.b.4.k sXyXi.8.n.8.8.l.W.w.5.M.M.7.xX}.k f d 4.!.4.p.OXW.k.!.Y.c F.n.D.C d C C :.k.f g %XY. .",
"!.-X;X-X,X,XlXcXbXH.p.,.:.d d g g :.;.;.o.;XdX<.~.4.^ m.W.X.5.2.7.5X8.lXG.j ;.^ 4.f.9.m.C.d.s.B Y.u :.2.D A @.9.R d t p N CXfXk ",
"W.;.s.!.C.W.9XxXfXgXa n k O.g j R g 5 s e J.jX9 B :.8.3.#.C.:.;.+.%.s [ x 7 L 7 0 y p 7 0 9 i H jXjX{ uX].! U Y c G K.fXgXSXBX*X",
"p l u 0 0 w j I T.BX{ Q J G G p x H Q J I uXGXyXF u 8 0 , < i < < u H.BXcXR.*X&XL.L.H.Q H.fXlXcXmXCXVXnXMXvXW.|.P.O.C.!.b.:.k.n.",
"uXdXAXkXjXdXyXiXVXbXbXvX7XqX!.|.G.sXlXsXlXzX;XzXzXs.u.L.}.K.fXiXY.OXF.M.c.c.(.c.M.C.gXiXX.o.M.b.b.W. Xb.+Xw.x.sXJ.V 4.@. .o.o.o.",
"VXGXBXzX7XF.!.qX-Xm.C.l.~./.#XjX~.).7X4X~.M.M.D.n.m.w.;.t.] r.d.+.O.o.&.*. .x.x.c.F.bXK...&.%.+X9X7X8X$XC.n.M G.P.i.r.i. .%.&.+.",
"!.bXOXn.b.5.:.-X9X7X!.R Q.E.lXAXs.5X9X~.v././.v.F./.v.3.%XH.:.W.*.*.%.8.7.5.(.c.M.5XbXt. .....z.W.OXB.D w 6 U / x w m t 6 w k g ",
"1XmXA.y.I.$XD.0X0X6XrX5X1X1Xu.kXP.b.)./.c.x.-.h h X.f B R.T.j ;.k | o.0 $ d k V B m gX~ a H q 9 l ! ] [ T.jXSXAXkXuXyXfXjXdXdXgX",
"z ` p.S Z 0.M `.>Xp.T n P 0./ [.x 9 w q 8 2 ; i > u Y L.yXjX[ I Q Q [ [.T.{ K c Q yXbXgXsXR.%X` ] iXsXlXlXV.OXW.+XlX+XW.dXBX*X;X",
"] K.Y ! Q / / z z G c Q P U Q.aXaXU.t.J.Y.] H.Q.g.y.Q.cXqX9XzX4X!.eXzX|.Q.0X9Xn.d.XX~.n.5.F.M.Y.G ,.vX6X~.e.w.@.w.n.5.:.E x e S.",
"+XeX5XF.B.$X3X`.J.*XF.c.S.v.c.e.W.!.S./.M.Y.6.X.3.7.S.%.8.x.c.M.).*.1.yX:.B.b.b.b.a.j.l.F.4Xk. X< C tX8XD.4.4.N.W.5.4.4.W.G X n ",
"S.z...*.c.v.5Xf.J.e.&.$.F.b.B.e.q.p.q.Z.i.` a.k.n.c.c.D.z.M.n.C.+XQ.Q.Q A 5XC.f.Q.OX@.b.C.D.#.%XJ % e.C._.e.a.a.N.a.p.m.;XK.< o ",
"D.e.O.i.8XoXB.*X] N ,.a._.#X@X@X.XC.~.oX.XL.@./.j.O.%.v.8.:.2 k -X;XC.~ # :.e.Z :.T C C m n ^ jXkX; 5 n n P r 9 p I x H.kXVXbXJ.",
"8XD.z.q.oXn.$.'.{.I z D p.p.9.C N c P _ ( pXQ @.W I t n p L H < a ~ yXCXQ G U I I G I G G.P.iXxXzX X<.h.L._ U.H.Q ) y. XC.4X4.1.",
"u 8 = > 8 - i ].DXSXAX|.H.] L.] H.] U.Q.zXNXzXQ.8XnXiX%XR.' Q.~.P.cXmX9X4X6XW.#XXXE.fXw.M././.x.S.3XS.A.A.@. XK.L B oX_.!.k.V A "
};
